<svg width="159" height="30" viewBox="0 0 159 30" fill="none" xmlns="http://www.w3.org/2000/svg">
<g clip-path="url(#clip0_742_4783)">
<path d="M17.3972 0L14.7369 2.86672L18.7492 7.19221L14.6856 11.5727V11.4923V7.11387L12.7195 4.98712L10.7534 7.11387V10.1309V11.4923V11.5727L6.68975 7.19221L10.7032 2.86672L8.04287 0L1.36914 7.19221L12.7195 19.4255L24.0698 7.19221L17.3972 0Z" fill="#EE8C71"/>
<path d="M19.4658 16.5366L19.4776 16.5493L12.7195 23.6959L5.96246 16.5493L5.97421 16.5366L2.99244 13.3851L0 16.5493L12.7195 30L25.439 16.5493L22.4465 13.3851L19.4658 16.5366Z" fill="#EE8C71"/>
<path d="M49.7994 22.3791C49.2953 22.7304 48.759 23.0338 48.1974 23.2852C47.6053 23.5513 46.9868 23.7553 46.352 23.8939C45.6727 24.0426 44.9789 24.1165 44.2833 24.1141C43.0778 24.1306 41.883 23.8876 40.7814 23.4017C39.7528 22.9437 38.8349 22.2731 38.0891 21.4348C37.3262 20.5662 36.7398 19.5597 36.3622 18.4707C35.9452 17.2796 35.7382 16.0262 35.7502 14.7655C35.7432 13.5305 35.9543 12.3037 36.3739 11.1408C36.7635 10.0454 37.3569 9.0321 38.1233 8.15343C38.8723 7.30191 39.7884 6.61037 40.8156 6.1209C41.8818 5.61468 43.051 5.35755 44.2331 5.36928C44.8913 5.36429 45.5485 5.42064 46.196 5.5376C46.7557 5.64217 47.3032 5.80284 47.83 6.01715C48.3287 6.22319 48.805 6.47892 49.2515 6.78041C49.716 7.09354 50.1545 7.44293 50.5629 7.82526L48.7293 10.2325C48.4251 9.94656 48.1041 9.67862 47.7681 9.43012C47.1095 8.94188 46.3514 8.60192 45.5467 8.43396C45.0792 8.33499 44.6022 8.28706 44.1242 8.29105C43.3916 8.28618 42.6691 8.45995 42.0203 8.79707C41.3653 9.13868 40.7889 9.61124 40.3276 10.1849C39.8356 10.7987 39.4541 11.492 39.1998 12.2344C38.9216 13.0357 38.7826 13.8779 38.7886 14.7253C38.7799 15.6055 38.9148 16.4813 39.188 17.3189C39.4307 18.0725 39.8176 18.7726 40.3276 19.3811C40.8121 19.9531 41.4129 20.4174 42.0908 20.7435C42.8067 21.0792 43.5907 21.2476 44.3826 21.2358C45.1321 21.2415 45.8765 21.1139 46.5805 20.8589C47.2258 20.6281 47.8262 20.289 48.3555 19.8564V16.4508H44.1477V13.6804H51.1525V21.2919C50.7278 21.6854 50.2757 22.0487 49.7994 22.3791Z" fill="#F3F9D2"/>
<path d="M71.2494 23.8029H68.1929L66.5237 19.4276H58.7436L57.0508 23.8029H54.0894L61.3291 5.55133H64.0086L71.2494 23.8029ZM62.6224 9.35704L59.803 16.6117H65.4632L62.6224 9.35704Z" fill="#F3F9D2"/>
<path d="M82.7642 19.3503H82.6702L77.5215 10.8582V23.8029H74.6572V5.68048H77.7362L82.7439 14.2499L87.7505 5.68048H90.8295V23.8029H87.962V10.8063L82.7642 19.3503Z" fill="#F3F9D2"/>
<path d="M106.958 6.92541C107.928 7.75536 108.412 8.88808 108.412 10.3236C108.42 10.8245 108.353 11.3238 108.215 11.8056C108.098 12.2038 107.926 12.5837 107.702 12.9341C107.496 13.2507 107.244 13.536 106.955 13.781C106.681 14.0122 106.389 14.2201 106.08 14.4024C106.54 14.5806 106.982 14.8014 107.4 15.0619C107.788 15.3037 108.135 15.6045 108.428 15.9533C108.727 16.317 108.953 16.7337 109.095 17.1812C109.259 17.7126 109.338 18.2664 109.329 18.8221C109.343 19.5602 109.195 20.2926 108.894 20.9679C108.613 21.5776 108.191 22.1132 107.663 22.5315C107.092 22.9717 106.438 23.2955 105.74 23.4842C104.93 23.7053 104.093 23.8122 103.253 23.8018H95.6492V5.68048H103.018C104.676 5.68048 105.989 6.09546 106.958 6.92541ZM104.701 12.7319C105.264 12.324 105.545 11.6952 105.545 10.8454C105.545 10.0995 105.299 9.52219 104.807 9.11356C104.315 8.70494 103.601 8.50133 102.664 8.50274H98.5167V13.3438H102.452C103.39 13.3438 104.14 13.1398 104.701 12.7319ZM105.618 20.3475C106.18 19.9241 106.461 19.2981 106.461 18.4696C106.461 17.6933 106.184 17.0891 105.629 16.6572C105.075 16.2253 104.227 16.0097 103.086 16.0104H98.5167V20.9859H103.298C104.282 20.9831 105.055 20.7703 105.619 20.3475H105.618Z" fill="#F3F9D2"/>
<path d="M125.385 8.55461H116.076V13.2125H124.326V16.0856H116.076V20.9277H125.502V23.8007H113.208V5.68048H125.383L125.385 8.55461Z" fill="#F3F9D2"/>
<path d="M136.503 23.8029H133.589V8.63189H128.366V5.68048H141.716V8.63189H136.498L136.503 23.8029Z" fill="#F3F9D2"/>
<path d="M148.231 16.166V23.8029H145.363V5.68048H148.231V13.2146H156.133V5.68048H159.001V23.8029H156.133V16.166H148.231Z" fill="#F3F9D2"/>
</g>
<defs>
<clipPath id="clip0_742_4783">
<rect width="159" height="30" fill="white"/>
</clipPath>
</defs>
</svg>
