<svg width="21" height="20" viewBox="0 0 21 20" fill="none" xmlns="http://www.w3.org/2000/svg">
<path d="M9.83906 0.574609C9.59219 0.576172 9.46563 0.601172 9.46563 1.16211C9.46563 1.72305 9.51875 18.9543 9.51875 19.1418C9.51875 19.3293 9.70625 19.409 10.0266 19.409H11.3359C11.55 19.409 11.6297 19.2762 11.6031 18.9277C11.5766 18.5809 11.5734 1.18867 11.5734 0.976172C11.5734 0.763672 11.4766 0.596484 11.1344 0.583984C10.8563 0.576172 10.1328 0.573047 9.83906 0.574609Z" fill="#02AB47"/>
<path d="M7.59219 6.86716C7.59219 6.86716 7.55312 5.88904 8.24375 5.25622C8.87969 4.67341 9.47344 4.71716 9.47344 4.71716L9.47969 5.68748C9.47969 5.68748 9.84219 5.56247 10.4547 5.58747C11.0672 5.61247 11.5719 5.82654 11.5719 5.82654V4.80779C11.5719 4.80779 11.9109 4.79216 12.4234 5.39529C12.6797 5.69685 12.8906 6.32498 12.9609 6.6531C13.05 7.07498 13.2047 7.27029 13.6125 7.29998C14.0203 7.32966 14.3297 7.32654 14.5812 7.31716C14.9391 7.30466 13.8172 5.35622 13.8172 5.35622C13.8172 5.35622 12.5641 3.46716 12.1562 3.45466C11.7469 3.44216 9.21562 3.50622 8.97344 3.63435C8.73125 3.76247 7.14531 4.87497 7.14531 4.87497L6.92812 6.59998C6.92812 6.59998 7.52969 7.3031 7.52969 7.25154C7.52812 7.19997 7.59219 6.86716 7.59219 6.86716ZM6.375 6.86716L5.18125 5.92966C5.18125 5.92966 4.92656 7.86404 5.89062 9.02966C6.59687 9.88122 7.425 10.2312 8.15312 10.5515C8.83437 10.85 9.49219 11.0562 9.49219 11.0562L9.49531 12.2L11.5812 13.3094L11.5781 11.8078C11.5781 11.8078 12.3703 12.2375 12.7672 12.6593C13.1641 13.0812 13.2016 13.6047 13.2141 13.9375C13.2266 14.2703 13.0609 14.7937 13.0609 14.7937L12.8312 15.8156L15.4906 13.1312L9.21562 8.96404L6.375 6.86716Z" fill="#2F7C31"/>
<path d="M5.32656 12.8711C5.32656 12.8711 5.00781 13.1445 5.1 13.8867C5.18438 14.5758 5.57344 15.6508 6.73594 16.5961C7.89844 17.5414 9.51719 17.7227 9.51719 17.7227V18.5117L11.5953 18.5086L11.5922 17.7258C11.5922 17.7258 12.8328 17.6742 13.8813 17.0086C14.9781 16.3133 15.7797 14.8945 15.7344 13.5617C15.7188 13.0945 15.4219 13.168 15.4219 13.168C15.4219 13.168 11.6063 16.468 11.35 16.493C11.0938 16.518 8.61406 16.0836 8.61406 16.0836L6.30156 13.5664L5.32656 12.8711Z" fill="#2F7C31"/>
<path d="M6.30156 12.5945C5.52344 12.671 5.25312 12.8241 5.24062 13.0554C5.22812 13.2851 5.90469 17.3023 10.6344 17.2351C15.1719 17.171 15.7094 14.4101 15.7469 13.3366C15.7937 12.046 15.0312 10.9726 13.3187 9.96164C12.0422 9.21008 8.95937 8.08195 8.44844 7.7632C7.97812 7.46945 7.32344 6.81789 7.4125 5.84601C7.50156 4.87414 8.5625 3.91633 10.5187 3.92883C12.475 3.94133 13.2453 5.30383 13.3953 5.70539C13.6359 6.35383 13.5891 7.19914 13.9453 7.31008C14.1109 7.36164 14.5969 7.34289 14.8781 7.30383C15.1594 7.26477 15.5594 7.04914 15.5812 6.48508C15.6062 5.83351 14.9297 2.18976 10.4047 2.22883C6.08437 2.26476 5.02031 4.91476 5.1875 6.43508C5.34375 7.87726 6.51875 9.23352 8.41094 10.0007C10.3031 10.7679 13.6516 11.7007 13.6141 13.4257C13.5797 14.9741 11.7844 15.521 10.3031 15.446C8.80781 15.3695 7.98906 14.5007 7.68281 13.4773C7.3875 12.4976 6.825 12.5445 6.30156 12.5945Z" fill="#02AB47"/>
<path d="M7.01875 13.0824C6.85938 12.7855 5.79375 12.8308 5.65781 13.3339C5.52031 13.8355 6.00781 14.6183 6.33438 14.5511C6.78281 14.4574 6.40313 13.9199 6.57813 13.7152C6.75156 13.5074 7.21563 13.4496 7.01875 13.0824ZM10.4406 0.841739C10.1297 0.833927 9.78125 0.830802 9.7625 1.24955C9.74531 1.65424 9.77344 1.96518 9.92969 1.9808C10.1078 1.99955 10.3594 1.61518 10.4688 1.44799C10.6094 1.23861 10.7766 0.851114 10.4406 0.841739ZM8.05156 3.30736C7.93125 3.13393 7.26563 2.99486 6.34219 4.13549C5.41875 5.27611 5.75938 5.87768 5.97031 5.90424C6.25781 5.94018 6.41719 5.70424 6.59375 5.31674C6.84531 4.76518 7.14531 4.42924 7.61406 4.07455C8.01406 3.77143 8.25781 3.6058 8.05156 3.30736Z" fill="#7ADC8A"/>
</svg>
