<svg width="20" height="20" viewBox="0 0 20 20" fill="none" xmlns="http://www.w3.org/2000/svg">
<g clip-path="url(#clip0_358_508)">
<path opacity="0.6" d="M12.5579 1.97968C9.4563 1.97968 7.12036 4.31561 7.12036 7.41718C7.12036 10.5187 9.6438 13.0437 12.7469 13.0437C15.85 13.0437 18.1844 10.7078 18.1844 7.60624C18.1844 4.50468 15.6594 1.97968 12.5579 1.97968Z" fill="#81D4FA"/>
<path d="M12.5578 1.97968C15.6594 1.97968 18.1844 4.50312 18.1844 7.60624C18.1844 10.7094 15.8484 13.0437 12.7469 13.0437C9.64532 13.0437 7.11875 10.5203 7.11875 7.41718C7.11875 4.31406 9.45469 1.97968 12.5578 1.97968ZM8.24219 3.10156C6.21407 5.33437 5.17969 8.98593 8.05938 11.8656C11.1688 14.975 15.3266 13.6844 17.5484 11.4156C18.75 10.1891 20.2594 5.69531 17.1844 2.62187C14.1094 -0.451567 9.58907 1.61874 8.24219 3.10156Z" fill="#616161"/>
<path d="M4.40942 14.1969L5.71099 15.5062L8.77661 12.4125C8.77661 12.4125 9.03599 11.9141 8.52349 11.4016C8.01099 10.8891 7.47505 11.1031 7.47505 11.1031L4.40942 14.1969Z" fill="#BDBDBD"/>
<path d="M6.17183 12.025C6.34839 11.8844 6.96089 11.5562 7.63433 12.225C8.3062 12.8937 8.03277 13.4219 7.89995 13.6172C7.89995 13.6172 3.12964 18.9094 2.91245 19.1281C2.59214 19.4484 1.93433 19.175 1.32495 18.5656C0.71558 17.9562 0.42183 17.3672 0.76558 17.0234C1.04527 16.7437 5.99527 12.1656 6.17183 12.025Z" fill="#616161"/>
<path d="M13.1375 1.35001C16.239 1.35001 18.7625 3.87345 18.7625 6.97501C18.7625 10.0766 16.239 12.6 13.1375 12.6C10.0359 12.6 7.51245 10.0766 7.51245 6.97501C7.51245 3.87345 10.0375 1.35001 13.1375 1.35001ZM13.1375 0.731262C9.69058 0.731262 6.89526 3.52658 6.89526 6.97345C6.89526 10.4203 9.69058 13.2156 13.1375 13.2156C16.5843 13.2156 19.3796 10.4203 19.3796 6.97345C19.3796 3.52658 16.5859 0.731262 13.1375 0.731262Z" fill="#BDBDBD"/>
<path d="M2.73934 19.1958C2.95656 18.9786 2.67509 18.3449 2.11065 17.7805C1.54621 17.2161 0.912549 16.9347 0.695323 17.1519C0.478098 17.3691 0.759571 18.0028 1.32401 18.5672C1.88845 19.1316 2.52211 19.4131 2.73934 19.1958Z" fill="#424242"/>
<path d="M11.3312 2.6453C9.98745 3.25468 9.17651 4.20155 8.67651 5.41405C8.49214 5.86093 8.36401 6.35937 8.49995 6.82343C8.63589 7.28593 9.11714 7.67343 9.58432 7.5578C9.8937 7.48124 10.1171 7.21874 10.3437 6.99374C10.6929 6.64943 11.0975 6.36631 11.5406 6.15624C12.0937 5.89374 12.6999 5.75155 13.2437 5.46718C13.7859 5.1828 14.2843 4.70468 14.3562 4.09687C14.4265 3.50155 14.0499 2.9078 13.5218 2.62187C12.9937 2.33593 12.1062 2.29374 11.3312 2.6453Z" fill="url(#paint0_linear_358_508)"/>
<path opacity="0.59" d="M8.16244 3.94061C8.23432 3.93905 8.29994 3.90467 8.33901 3.8453C8.54994 3.53592 9.04057 2.70467 10.3749 1.96874C11.1531 1.53905 11.8062 1.36874 12.039 1.3203C12.6984 1.1828 12.4703 0.84061 12.0421 0.898423C11.5562 0.964048 9.42026 1.43436 7.97651 3.59217C7.87651 3.74374 7.98119 3.9453 8.16244 3.94061ZM18.2906 9.63905C18.089 9.66405 17.9031 10.014 17.8656 10.075C17.6703 10.3937 17.2874 11.1844 15.9562 11.9265C15.3359 12.2719 14.6968 12.525 14.3781 12.6125C13.8578 12.7562 13.9703 13.1125 14.3937 13.0344C14.8765 12.9453 16.989 12.3781 18.3312 10.1562C18.4249 9.99999 18.5593 9.60624 18.2906 9.63905Z" fill="white"/>
<path d="M13.4406 11.9109C12.7328 11.8891 12.5953 11.5609 12.7406 11.2969C12.8562 11.0875 13.1265 11.0453 13.3656 11.0266C14.639 10.9266 15.8656 10.1531 16.8125 9.32812C16.6453 10.1859 16.314 10.6328 15.7937 11.05C15.2844 11.4563 14.525 11.9453 13.4406 11.9109Z" fill="url(#paint1_linear_358_508)"/>
</g>
<defs>
<linearGradient id="paint0_linear_358_508" x1="10.7673" y1="1.47909" x2="11.5915" y2="6.29032" gradientUnits="userSpaceOnUse">
<stop offset="0.285" stop-color="white"/>
<stop offset="1" stop-color="white" stop-opacity="0"/>
</linearGradient>
<linearGradient id="paint1_linear_358_508" x1="13.1925" y1="15.3067" x2="15.231" y2="8.91831" gradientUnits="userSpaceOnUse">
<stop offset="0.285" stop-color="white"/>
<stop offset="1" stop-color="white" stop-opacity="0"/>
</linearGradient>
<clipPath id="clip0_358_508">
<rect width="20" height="20" fill="white"/>
</clipPath>
</defs>
</svg>
