<svg width="20" height="20" viewBox="0 0 20 20" fill="none" xmlns="http://www.w3.org/2000/svg">
<path d="M14.6032 6.16405C15.6516 5.93124 17.0172 4.89062 17.2251 4.37812C17.3469 4.07812 16.7391 3.60937 16.5766 3.4203C16.2047 2.98905 16.3547 2.77655 16.4985 2.26249C16.6626 1.67812 16.2735 1.0328 15.7219 0.779679C15.1704 0.526554 14.511 0.606241 13.9563 0.853116C13.4016 1.09999 12.9282 1.49687 12.4641 1.88749C12.1251 1.67343 11.5844 0.728116 10.7094 1.34218C10.1047 1.76562 10.0501 2.68749 10.1282 3.42343C10.311 5.12187 10.7297 6.00312 11.5188 6.24062C12.5157 6.54062 13.6188 6.3828 14.6032 6.16405Z" fill="#FFCA28"/>
<path d="M16.3063 1.27814C16.1735 3.5672 13.9407 5.08595 12.8813 5.7547L13.5688 6.34532C13.5688 6.34532 14.0047 6.3547 14.6016 6.16407C15.625 5.83907 17.1203 4.92032 17.2235 4.37814C17.375 3.58907 16.5657 3.76095 16.3828 3.13751C16.2875 2.80782 16.8469 2.18439 16.3063 1.27814ZM12.4657 1.88907C12.4657 1.88907 12.0672 1.48126 11.7719 1.29532C11.625 1.57189 11.5203 1.87189 11.4688 2.18126C11.3766 2.72501 11.4688 3.49689 11.686 4.07189C11.7203 4.16095 11.8485 4.14689 11.8625 4.05314C12.05 2.8172 12.4657 1.88907 12.4657 1.88907Z" fill="#E2A610"/>
<path d="M9.68128 5.96253C9.68128 5.96253 4.80784 6.48909 2.6094 10.7203C0.410965 14.9516 2.27971 17.5172 4.25784 18.4516C6.23596 19.386 11.2203 19.7157 14.4625 18.9469C17.7047 18.1782 18.5157 16.5844 18.3641 15.0453C18.1438 12.7985 16.0563 11.4172 16.0563 11.4172C16.0563 11.4172 16.1391 8.64221 13.986 6.84065C12.075 5.24065 9.68128 5.96253 9.68128 5.96253Z" fill="#FFCA28"/>
<path d="M11.6813 13.0828C10.636 11.7641 9.4016 11.5875 9.00629 11.1141C8.79066 10.8563 8.6641 10.5953 8.71254 10.2719C8.7641 9.92815 9.16254 9.69065 9.47191 9.63284C9.83285 9.56409 10.6938 9.60002 11.4172 10.2891C11.5891 10.4516 11.5266 10.7047 11.5219 10.9313C11.5094 11.4172 12.2047 11.8891 12.7672 11.4828C13.3313 11.075 12.8985 10.1672 12.5344 9.72659C12.2594 9.39377 11.2625 8.66096 10.0235 8.54534C9.67504 8.51252 8.27348 8.30471 7.4641 9.84377C7.23129 10.286 7.14535 11.3547 8.3641 12.2578C8.61879 12.4469 9.94066 13.1188 10.3079 13.5547C10.9438 14.3094 10.5079 14.9735 10.011 15.061C8.65629 15.2985 7.8891 14.5656 7.74691 14.1641C7.64535 13.8781 7.7516 13.5688 7.62035 13.3C7.48598 13.0235 7.21098 12.9141 6.92035 13.0063C5.96723 13.3094 6.27035 14.3516 6.69223 14.925C7.14379 15.5391 7.69848 15.9094 8.32191 16.1125C10.6485 16.8703 11.7672 15.6735 11.9625 14.7969C12.1063 14.1547 12.0907 13.5985 11.6813 13.0828Z" fill="#6B4B46"/>
<path d="M11.1188 7.65466C9.13909 11.8828 8.79846 17.2219 8.79846 17.2219" stroke="#6B4B46" stroke-width="0.558659" stroke-miterlimit="10"/>
<path d="M12.761 4.99377C14.0797 5.42346 14.3719 6.61565 14.2766 6.94065C14.1625 7.3219 12.7016 5.83752 10.5297 5.92658C9.77035 5.95783 9.99067 5.49221 10.3422 5.22346C10.8063 4.86877 11.586 4.61252 12.761 4.99377Z" fill="#6D4C41"/>
<path d="M12.761 4.99377C14.0797 5.42346 14.3719 6.61565 14.2766 6.94065C14.1625 7.3219 12.7016 5.83752 10.5297 5.92658C9.77035 5.95783 9.99067 5.49221 10.3422 5.22346C10.8063 4.86877 11.586 4.61252 12.761 4.99377Z" fill="#6B4B46"/>
<path d="M15.0765 9.19689C15.2421 9.08282 15.7984 9.2797 15.9546 10.3688C16.0312 10.9016 16.0546 11.4172 16.0546 11.4172C16.0546 11.4172 15.3984 10.8281 15.1812 10.4141C14.9078 9.89064 14.8015 9.38439 15.0765 9.19689Z" fill="#E2A610"/>
</svg>
