<svg width="20" height="20" viewBox="0 0 20 20" fill="none" xmlns="http://www.w3.org/2000/svg">
<path d="M2.01564 7.0661C3.06564 7.0661 10.2375 7.18016 10.2375 7.18016C10.8078 7.18016 10.9141 7.19579 10.7563 6.98641C10.5985 6.77704 9.99533 6.57079 9.59533 5.08329C9.29533 3.97079 9.75314 2.57391 10.4313 2.21298C10.7328 2.05204 11.3547 2.02548 11.586 2.54579C11.8078 3.04423 11.8313 4.04735 12.4672 4.88485C13.2453 5.90985 13.8906 5.94891 15.0922 6.60829C16.0516 7.13329 16.7906 8.42079 17.3219 8.69735C17.7063 8.89891 18.2 8.88954 18.6938 8.86766C18.8828 8.85985 19.0531 8.98485 19.0985 9.16923C19.2094 9.60985 19.3766 10.5317 19.3766 12.0708C19.3766 13.5911 19.2141 14.5083 19.1031 14.9567C19.0808 15.0489 19.0261 15.13 18.9489 15.185C18.8717 15.2401 18.7772 15.2656 18.6828 15.2567C18.161 15.2083 17.6047 15.138 17.2094 15.2911C16.6656 15.5005 15.9094 16.1927 14.9563 16.7567C12.725 18.077 10.3813 17.9302 9.03751 17.8177C7.99845 17.7317 6.6922 17.0849 6.49689 16.2302C6.39689 15.7927 6.50939 15.4849 6.77501 15.1645C6.83595 15.0895 6.78283 14.977 6.69064 14.9474C6.29376 14.8192 5.68126 14.5474 5.62814 13.7364C5.58439 13.0724 5.97345 12.7911 6.18439 12.5567C6.24689 12.4864 6.19533 12.413 6.10626 12.3817C5.72658 12.252 5.06564 11.777 5.08908 11.0505C5.11564 10.2114 5.7547 9.89423 6.22345 9.74579C6.30783 9.71923 5.7422 9.52704 5.65314 9.52079C5.65314 9.52079 3.32814 9.33798 2.32814 9.17235C1.3797 9.0161 0.495327 8.76454 0.656264 7.84423C0.718764 7.45829 0.964077 7.0661 2.01564 7.0661Z" fill="#FFCA28"/>
<path d="M8.27668 9.53709C7.92356 9.78241 7.25949 10.2012 7.22356 10.9512C7.18918 11.6746 7.77356 11.9355 7.83762 12.3012C7.92356 12.7996 7.56887 12.8574 7.60637 13.5496C7.64231 14.2137 8.09074 14.3433 8.15481 14.8121C8.19543 15.1105 7.87356 15.3746 7.93137 16.0965C7.95481 16.3965 8.25637 17.0199 8.81887 17.2512C9.23137 17.4199 8.48293 17.7402 8.26418 17.6777C7.55481 17.4746 6.69231 17.0277 6.49856 16.248L6.49387 16.2262C6.39387 15.7887 6.50637 15.4808 6.77199 15.1605C6.83293 15.0855 6.77981 14.973 6.68762 14.9433C6.29074 14.8152 5.67824 14.5433 5.62512 13.7324C5.58137 13.0683 5.97043 12.7871 6.18137 12.5527C6.24387 12.4824 6.19231 12.409 6.10324 12.3777C5.72356 12.248 5.06262 11.773 5.08606 11.0465C5.11262 10.2074 5.75168 9.89022 6.22043 9.74178C6.25168 9.73553 7.86887 9.43397 8.27668 9.53709Z" fill="#FFB300"/>
<path d="M10.8922 7.01602C10.95 6.77227 10.7234 6.56914 10.6094 6.44102C10.25 6.04258 10.0219 5.57852 9.90313 5.2332C9.47032 3.9707 9.86719 3.00977 10.1063 2.4707C10.1063 2.4707 8.9 3.61602 9.3625 5.49258C9.51875 6.12539 9.81094 6.57383 10.1875 6.97539C10.5016 7.31133 10.8391 7.24258 10.8922 7.01602ZM9.03438 17.8176C8.17344 17.7457 7.15938 17.3363 6.7125 16.7176C6.66719 16.6551 6.74532 16.5785 6.80469 16.6285C7.12344 16.8941 7.74375 17.2395 8.87188 17.3082C11.5406 17.4707 13.2219 17.241 14.7156 16.3566C15.1266 16.1129 15.5078 15.8395 15.8453 15.5973C16.2953 15.2738 16.5844 15.0785 16.9453 14.9551C17.9297 14.6191 18.6797 15.2582 18.6797 15.2582C18.1578 15.2098 17.6016 15.1395 17.2063 15.2926C16.6625 15.502 15.9063 16.1941 14.9531 16.7582C12.7234 18.0785 10.3797 17.9301 9.03438 17.8176ZM7.05313 9.88164C7.97344 9.93633 8.38438 9.5457 8.38438 9.5457C8.38438 9.5457 8.14688 9.40508 7.15 9.26445C7.15 9.26445 2.41719 8.92383 1.68594 8.83789C0.760941 8.73008 0.631253 8.04258 0.631253 8.04258C0.631253 8.04258 0.459378 9.10977 1.76407 9.3207C2.7375 9.48008 6.13282 9.82695 7.05313 9.88164ZM7.58438 14.527C7.95938 14.4988 8.11563 14.5957 8.15469 14.8051C8.19375 15.0145 7.96719 15.1145 7.54063 15.1004C6.4625 15.0676 5.725 14.6207 5.66094 13.9426C5.66094 13.9426 6.05157 14.641 7.58438 14.527ZM7.275 11.9816C7.6125 11.9691 7.80625 12.0957 7.83282 12.3395C7.85938 12.5832 7.59688 12.6676 7.34532 12.6645C6.2625 12.6504 5.15782 12.102 5.09844 11.252C5.09844 11.252 5.5125 12.0504 7.275 11.9816Z" fill="#EDA600"/>
</svg>
