<svg width="20" height="20" viewBox="0 0 20 20" fill="none" xmlns="http://www.w3.org/2000/svg">
<g clip-path="url(#clip0_358_514)">
<path d="M18.3328 2.40312C18.8238 2.40312 19.2219 2.00508 19.2219 1.51406C19.2219 1.02305 18.8238 0.625 18.3328 0.625C17.8418 0.625 17.4437 1.02305 17.4437 1.51406C17.4437 2.00508 17.8418 2.40312 18.3328 2.40312Z" fill="#F44336"/>
<path d="M12.514 12.2469C12.514 12.2469 14 14.2469 14 15.036C14 15.825 13.3593 16.4656 12.5703 16.4656C11.8968 16.4656 3.47651 16.4484 2.54683 16.4484C1.61714 16.4484 1.09058 16.9938 1.09058 16.9938" stroke="#84B0C1" stroke-width="0.744394" stroke-miterlimit="10" stroke-linecap="round"/>
<path d="M9.19214 12.0516C9.19214 12.0516 10.8484 14.2469 10.8484 15.0375C10.8484 15.8281 10.1234 16.4625 9.33433 16.4625" stroke="#84B0C1" stroke-width="0.744394" stroke-miterlimit="10" stroke-linecap="round"/>
<path d="M12.9328 13.5516C12.6187 13.0141 12.364 12.7016 11.9547 12.1422C11.9547 12.1422 12.0625 12.1656 12.3531 12.1656C12.6437 12.1656 12.8531 12.0734 12.8531 12.0734C13.2656 12.6562 13.389 12.8047 13.6094 13.1953C13.6094 13.1953 13.6015 13.45 13.3984 13.5844C13.1953 13.7187 12.9328 13.5516 12.9328 13.5516ZM9.77498 13.5781C9.33904 12.9125 8.9906 12.4047 8.9906 12.4047L9.9281 12.4266C9.9281 12.4266 10.3484 12.9906 10.589 13.4375C10.589 13.4375 10.625 13.6406 10.3562 13.7469C10.0875 13.85 9.77498 13.5781 9.77498 13.5781Z" fill="#2F7889"/>
<path d="M12.5172 12.2875L1.58911 11.5594C1.55317 11.5563 1.52661 11.5281 1.52661 11.4922V5.39063C1.52661 5.33281 1.57192 5.28438 1.62974 5.28125L15.4782 4.4C15.6125 4.39063 15.7094 4.525 15.661 4.65L12.7204 12.1594C12.6875 12.2422 12.6063 12.2937 12.5172 12.2875Z" stroke="#84B0C1" stroke-width="0.744394" stroke-miterlimit="10"/>
<path d="M3.69841 5.1656L3.41091 11.6406M6.1781 4.99685L5.27966 11.7797M8.65935 4.8281L7.14841 11.9187M11.1406 4.65935L9.01716 12.0578M13.6203 4.4906L10.8859 12.1969M1.29529 7.57498L14.664 7.1156M1.41873 9.70466H13.825" stroke="#84B0C1" stroke-width="0.446667" stroke-miterlimit="10"/>
<path d="M12.5641 19.375C13.2148 19.375 13.7422 18.8475 13.7422 18.1969C13.7422 17.5462 13.2148 17.0187 12.5641 17.0187C11.9135 17.0187 11.386 17.5462 11.386 18.1969C11.386 18.8475 11.9135 19.375 12.5641 19.375Z" fill="#424242"/>
<path d="M11.8047 16.575H13.325L12.9625 18.1516C12.9281 18.3969 12.7609 18.575 12.5656 18.575C12.3703 18.575 12.2016 18.3969 12.1687 18.1516L11.8047 16.575Z" fill="#84B0C1"/>
<path d="M12.8078 18.2078C12.7796 18.311 12.7281 18.4282 12.6234 18.4547C12.2453 18.5516 12.1921 17.6219 12.3828 17.4625C12.4984 17.3657 12.739 17.3485 12.8406 17.4688C12.9703 17.6219 12.8562 18.0375 12.8078 18.2078Z" fill="#A8E3F0"/>
<path d="M12.5828 17.1328C12.3312 17.1328 12.1531 16.9844 12.0656 16.8922C12.0597 16.8861 12.0556 16.8784 12.054 16.8701C12.0523 16.8617 12.0531 16.853 12.0562 16.8451C12.0593 16.8372 12.0647 16.8303 12.0716 16.8254C12.0786 16.8204 12.0868 16.8176 12.0953 16.8172C12.2578 16.8094 12.4203 16.811 12.5812 16.8063C12.7437 16.811 12.9062 16.8094 13.0672 16.8172C13.1047 16.8188 13.1234 16.8656 13.0969 16.8922C13.0141 16.9844 12.8344 17.1328 12.5828 17.1328Z" fill="#2F7889"/>
<path d="M12.1937 18.5969C12.2953 18.7141 12.4578 18.7688 12.6125 18.75C12.7656 18.7313 12.9062 18.6406 12.9984 18.5156C13.0516 18.4422 13.0891 18.3578 13.15 18.2906C13.2109 18.2234 13.3078 18.1766 13.3922 18.2109C13.5109 18.2578 13.5266 18.4234 13.4859 18.5438C13.4465 18.6639 13.3835 18.7751 13.3006 18.8706C13.2177 18.9661 13.1166 19.0441 13.0031 19.1C12.8484 19.1766 12.6328 19.2078 12.4609 19.1906C12.1312 19.1563 11.7766 18.8578 11.6609 18.5516C11.5984 18.3875 11.5437 18.0578 11.8703 18.1328C12.0219 18.1688 12.0719 18.4563 12.1937 18.5969Z" fill="#757575"/>
<path d="M15.5969 4.79846L16.3172 3.03752C16.611 2.31877 16.8282 2.15784 17.2641 1.96252L18.2844 1.54846" stroke="#84B0C1" stroke-width="0.744394" stroke-miterlimit="10" stroke-linecap="round"/>
<path d="M3.06252 19.375C3.71318 19.375 4.24065 18.8475 4.24065 18.1969C4.24065 17.5462 3.71318 17.0187 3.06252 17.0187C2.41186 17.0187 1.8844 17.5462 1.8844 18.1969C1.8844 18.8475 2.41186 19.375 3.06252 19.375Z" fill="#424242"/>
<path d="M2.30151 16.575H3.82183L3.45933 18.1516C3.42495 18.3969 3.25776 18.575 3.06245 18.575C2.86714 18.575 2.69839 18.3969 2.66558 18.1516L2.30151 16.575Z" fill="#84B0C1"/>
<path d="M3.3063 18.2078C3.27817 18.311 3.22661 18.4282 3.12192 18.4547C2.7438 18.5516 2.69067 17.6219 2.8813 17.4625C2.99692 17.3657 3.23755 17.3485 3.33911 17.4688C3.4688 17.6219 3.35317 18.0375 3.3063 18.2078Z" fill="#A8E3F0"/>
<path d="M3.08122 17.1328C2.82966 17.1328 2.65153 16.9844 2.56403 16.8922C2.55809 16.8861 2.55404 16.8784 2.55237 16.8701C2.5507 16.8617 2.55148 16.853 2.55462 16.8451C2.55775 16.8372 2.56311 16.8303 2.57005 16.8254C2.57699 16.8204 2.58521 16.8176 2.59372 16.8172C2.75622 16.8094 2.91872 16.811 3.07966 16.8063C3.24216 16.811 3.40466 16.8094 3.56559 16.8172C3.60309 16.8188 3.62184 16.8656 3.59528 16.8922C3.51091 16.9844 3.33122 17.1328 3.08122 17.1328Z" fill="#2F7889"/>
<path d="M2.69057 18.5969C2.79214 18.7141 2.95464 18.7688 3.10932 18.75C3.26245 18.7313 3.40307 18.6406 3.49526 18.5156C3.54839 18.4422 3.58589 18.3578 3.64682 18.2906C3.70776 18.2234 3.80464 18.1766 3.88901 18.2109C4.00776 18.2578 4.02339 18.4234 3.98276 18.5438C3.94336 18.6639 3.88037 18.7751 3.79746 18.8706C3.71455 18.9661 3.6134 19.0441 3.49995 19.1C3.34526 19.1766 3.12964 19.2078 2.95776 19.1906C2.62807 19.1563 2.27339 18.8578 2.15776 18.5516C2.09526 18.3875 2.04057 18.0578 2.36714 18.1328C2.5187 18.1688 2.5687 18.4563 2.69057 18.5969Z" fill="#757575"/>
</g>
<defs>
<clipPath id="clip0_358_514">
<rect width="20" height="20" fill="white"/>
</clipPath>
</defs>
</svg>
