<svg width="20" height="20" viewBox="0 0 20 20" fill="none" xmlns="http://www.w3.org/2000/svg">
<g clip-path="url(#clip0_358_521)">
<path d="M18.75 13.75H1.25C0.904687 13.75 0.625 13.4703 0.625 13.125V1.875C0.625 1.52969 0.904687 1.25 1.25 1.25H18.75C19.0953 1.25 19.375 1.52969 19.375 1.875V13.125C19.375 13.4703 19.0953 13.75 18.75 13.75Z" fill="url(#paint0_linear_358_521)"/>
<path opacity="0.3" d="M18.75 13.75H1.25C0.904687 13.75 0.625 13.4703 0.625 13.125V1.875C0.625 1.52969 0.904687 1.25 1.25 1.25H18.75C19.0953 1.25 19.375 1.52969 19.375 1.875V13.125C19.375 13.4703 19.0953 13.75 18.75 13.75Z" fill="url(#paint1_linear_358_521)"/>
<path opacity="0.3" d="M18.7234 13.75H1.22339C0.878076 13.75 0.598389 13.4703 0.598389 13.125V1.875C0.598389 1.52969 0.878076 1.25 1.22339 1.25H18.7234C19.0687 1.25 19.3484 1.52969 19.3484 1.875V13.125C19.3484 13.4703 19.0687 13.75 18.7234 13.75Z" fill="url(#paint2_linear_358_521)"/>
<path d="M1.875 2.5H5.625V3.125H1.875V2.5ZM13.4375 2.5H15.9375V3.125H13.4375V2.5ZM16.875 2.5H18.125V3.125H16.875V2.5ZM3.125 4.375H4.375V5H3.125V4.375ZM1.875 6.25H4.375V6.875H1.875V6.25ZM1.875 8.125H3.125V8.75H1.875V8.125ZM15.3125 8.125H17.1875V8.75H15.3125V8.125ZM16.25 6.25H18.125V6.875H16.25V6.25ZM1.875 10H4.375V10.625H1.875V10ZM15 10H18.125V10.625H15V10ZM15.625 4.375H17.5V5H15.625V4.375Z" fill="#76FF03"/>
<path d="M15.4531 12.4625C15.2578 12.1078 15.5063 11.7469 15.9313 11.3C16.6047 10.5906 17.3375 8.94532 16.6563 7.27501C16.6609 7.26564 16.5219 6.98439 16.5266 6.97501L16.2469 6.96095C16.1578 6.94845 13.0813 6.9422 10.0016 6.9422C6.92188 6.9422 3.84532 6.94845 3.75626 6.96095C3.75626 6.96095 3.34219 7.26564 3.34532 7.27501C2.66563 8.94532 3.39688 10.5906 4.07032 11.3C4.49376 11.7469 4.74219 12.1078 4.54844 12.4625C4.35938 12.8078 3.79688 12.8578 3.79688 12.8578C3.79688 12.8578 3.92657 13.2109 4.23907 13.4016C4.52813 13.5781 4.88438 13.6188 5.12969 13.625C5.12969 13.625 6.09063 14.9547 8.60313 14.9547H11.4C13.9125 14.9547 14.8734 13.625 14.8734 13.625C15.1188 13.6188 15.475 13.5781 15.7641 13.4016C16.0766 13.2109 16.2063 12.8578 16.2063 12.8578C16.2063 12.8578 15.6422 12.8063 15.4531 12.4625Z" fill="#312D2D"/>
<path d="M9.99841 14.9531V13.4781L14.4625 13.125L14.8687 13.625C14.8687 13.625 13.9078 14.9547 11.3953 14.9547L9.99841 14.9531Z" fill="url(#paint3_radial_358_521)"/>
<path d="M14.8594 12.9797C14.1907 11.964 15.6735 11.5844 15.6735 11.5844L15.675 11.5859C15.4172 11.9062 15.3 12.1859 15.4516 12.4625C15.6407 12.8078 16.2032 12.8578 16.2032 12.8578C16.2032 12.8578 15.436 13.539 14.8594 12.9797Z" fill="url(#paint4_radial_358_521)"/>
<path d="M16.6594 7.275C17.3235 8.89219 16.625 10.5578 15.9703 11.2609C15.8813 11.3578 15.5 11.7312 15.4125 12.0297C15.4125 12.0297 13.9219 9.95 13.4766 8.72813C13.3875 8.48125 13.3047 8.22812 13.2938 7.96562C13.286 7.76875 13.3156 7.53438 13.4297 7.36719C13.5688 7.1625 16.5797 7.10156 16.5797 7.10156C16.5797 7.10313 16.6594 7.275 16.6594 7.275Z" fill="url(#paint5_radial_358_521)"/>
<path d="M3.34376 7.275C2.6797 8.89219 3.37814 10.5578 4.03282 11.2609C4.12345 11.3578 4.50314 11.7312 4.59064 12.0297C4.59064 12.0297 6.08126 9.95 6.52657 8.72813C6.6172 8.48125 6.69845 8.22812 6.70939 7.96562C6.7172 7.76875 6.68751 7.53438 6.57345 7.36719C6.43439 7.1625 6.27189 7.21719 6.03595 7.21719C5.58595 7.21719 3.61564 7.10156 3.46251 7.10156C3.46407 7.10313 3.34376 7.275 3.34376 7.275Z" fill="url(#paint6_radial_358_521)"/>
<path d="M10.0047 14.9531V13.4781L5.54065 13.125L5.1344 13.625C5.1344 13.625 6.09534 14.9547 8.60784 14.9547L10.0047 14.9531Z" fill="url(#paint7_radial_358_521)"/>
<path d="M5.1438 12.9797C5.81255 11.964 4.32974 11.5844 4.32974 11.5844L4.32817 11.5859C4.58599 11.9062 4.70317 12.1859 4.55161 12.4625C4.36255 12.8078 3.80005 12.8578 3.80005 12.8578C3.80005 12.8578 4.56724 13.539 5.1438 12.9797Z" fill="url(#paint8_radial_358_521)"/>
<path d="M14.2703 7.8656H5.72971C4.8094 7.8656 4.05627 8.66716 4.05627 9.64841C4.05627 10.6297 4.8094 11.4312 5.72971 11.4312H14.2688C15.1891 11.4312 15.9422 10.6281 15.9422 9.64841C15.9438 8.66873 15.1907 7.8656 14.2703 7.8656Z" fill="#EDC391"/>
<path d="M9.99995 1.71564C7.2812 1.71564 4.76245 4.62345 4.76245 8.80939C4.76245 12.9719 7.35776 15.0297 9.99995 15.0297C12.6421 15.0297 15.2374 12.9719 15.2374 8.80939C15.2374 4.62345 12.7187 1.71564 9.99995 1.71564Z" fill="#F9DDBD"/>
<path d="M8.56246 7.76877C8.41715 7.57659 8.08277 7.29846 7.43277 7.29846C6.78277 7.29846 6.44684 7.57815 6.30309 7.76877C6.23902 7.85315 6.25465 7.95159 6.29996 8.01096C6.34059 8.06565 6.46246 8.11721 6.59684 8.0719C6.73121 8.02659 6.99371 7.89065 7.43277 7.88752C7.87184 7.89065 8.13434 8.02659 8.26871 8.0719C8.40309 8.11721 8.52496 8.06721 8.56559 8.01096C8.60934 7.95315 8.62652 7.85471 8.56246 7.76877ZM13.6984 7.76877C13.5531 7.57659 13.2187 7.29846 12.5687 7.29846C11.9187 7.29846 11.5828 7.57815 11.439 7.76877C11.375 7.85315 11.3906 7.95159 11.4359 8.01096C11.4765 8.06565 11.5984 8.11721 11.7328 8.0719C11.8671 8.02659 12.1297 7.89065 12.5687 7.88752C13.0078 7.89065 13.2703 8.02659 13.4047 8.0719C13.539 8.11721 13.6609 8.06721 13.7015 8.01096C13.7453 7.95315 13.7625 7.85471 13.6984 7.76877Z" fill="#454140"/>
<path d="M7.4312 9.97186C7.85663 9.97186 8.20151 9.61509 8.20151 9.17499C8.20151 8.73489 7.85663 8.37811 7.4312 8.37811C7.00577 8.37811 6.66089 8.73489 6.66089 9.17499C6.66089 9.61509 7.00577 9.97186 7.4312 9.97186Z" fill="#312D2D"/>
<path d="M12.5687 9.97186C12.9941 9.97186 13.339 9.61509 13.339 9.17499C13.339 8.73489 12.9941 8.37811 12.5687 8.37811C12.1432 8.37811 11.7983 8.73489 11.7983 9.17499C11.7983 9.61509 12.1432 9.97186 12.5687 9.97186Z" fill="#312D2D"/>
<path d="M11.3156 11.8828C10.8187 12.1781 9.18592 12.1781 8.68905 11.8828C8.40311 11.7125 8.11092 11.9735 8.22967 12.2328C8.34686 12.4875 9.23592 13.0797 10.0062 13.0797C10.7765 13.0797 11.6547 12.4875 11.7719 12.2328C11.889 11.9735 11.6015 11.7125 11.3156 11.8828Z" fill="#444444"/>
<path d="M10.6032 10.6188C10.586 10.6125 10.5703 10.6078 10.5532 10.6063H9.4469C9.42971 10.6078 9.41253 10.6125 9.3969 10.6188C9.2969 10.6594 9.24221 10.7625 9.28909 10.8734C9.33596 10.9844 9.55628 11.2938 10 11.2938C10.4438 11.2938 10.6641 10.9828 10.711 10.8734C10.7578 10.7641 10.7032 10.6594 10.6032 10.6188Z" fill="#DBA689"/>
<path d="M16.2609 3.90936C15.8797 3.3328 15.025 2.55936 14.2578 2.5078C14.1344 1.7703 13.3453 1.1453 12.5813 0.903113C10.5141 0.248426 9.16876 0.982801 8.44689 1.37655C8.29689 1.4578 7.32658 1.99686 6.64845 1.61093C6.22345 1.36874 6.23126 0.714051 6.23126 0.714051C6.23126 0.714051 4.90001 1.22186 5.3547 2.63593C4.89689 2.65468 4.29689 2.84843 3.9797 3.49061C3.60158 4.25624 3.73595 4.8953 3.84533 5.20155C3.45158 5.53593 2.95626 6.24686 3.29533 7.1703C3.55158 7.86561 4.57189 8.18593 4.57189 8.18593C4.47501 9.86405 4.92814 10.6781 4.92814 10.6781C4.92814 10.6781 5.66095 7.7953 5.60001 7.35468C5.60001 7.35468 6.81251 7.11405 8.18907 6.32655C9.11876 5.79374 9.7547 5.1703 10.8 4.93436C12.3906 4.57655 12.7453 5.72811 12.7453 5.72811C12.7453 5.72811 14.2172 5.4453 14.6609 7.48905C14.8438 8.32968 14.9625 9.72342 15.0625 10.5781C15.0531 10.5031 15.5688 9.58905 15.6656 8.65155C15.6906 8.40936 16.3438 8.08905 16.625 7.04843C16.9984 5.66093 16.5375 4.32655 16.2609 3.90936Z" fill="#312D2D"/>
<path d="M15.6594 8.65779C15.6844 8.4156 16.3375 8.09529 16.6188 7.05466C16.6485 6.94373 16.6735 6.83123 16.6969 6.71873C16.925 5.45466 16.5157 4.29373 16.261 3.90935C15.9079 3.37654 15.1516 2.67654 14.4344 2.53279C14.3719 2.52498 14.311 2.51716 14.2532 2.51404C14.2532 2.51404 14.3047 2.84998 14.1688 3.11716C13.9938 3.46404 13.636 3.54685 13.636 3.54685C15.5063 5.41716 15.3735 6.98435 15.6594 8.65779Z" fill="url(#paint9_radial_358_521)"/>
<path d="M8.8984 1.1406C8.72653 1.22341 8.57653 1.30623 8.44528 1.37654C8.29528 1.45779 7.32496 1.99685 6.64684 1.61091C6.22965 1.37341 6.22965 0.739038 6.22965 0.717163C6.03746 0.962476 5.45621 2.71404 7.15621 2.83123C7.88903 2.88123 8.34059 2.24216 8.60934 1.70154C8.70621 1.5031 8.85778 1.21716 8.8984 1.1406Z" fill="url(#paint10_radial_358_521)"/>
<path d="M12.3688 0.840651C13.5125 1.15003 14.1235 1.75784 14.2563 2.5094C14.2969 2.74065 14.3766 4.86565 10.3141 2.4469C8.80316 1.5469 9.21566 0.984401 9.39222 0.920338C10.0828 0.670338 11.0875 0.493776 12.3688 0.840651Z" fill="url(#paint11_radial_358_521)"/>
<path d="M6.22502 0.7172C6.22345 0.718762 6.22033 0.718762 6.21564 0.721887H6.21408C6.06877 0.782825 4.92658 1.31251 5.35314 2.63751L6.56877 2.83282C5.4922 1.7422 6.2297 0.715637 6.2297 0.715637C6.2297 0.715637 6.22658 0.715637 6.22502 0.7172Z" fill="url(#paint12_radial_358_521)"/>
<path d="M6.10464 2.75624L5.35307 2.63593C5.32339 2.63593 5.22339 2.6453 5.1687 2.65311C4.74526 2.71249 4.24682 2.93124 3.97651 3.49061C3.68589 4.09374 3.6937 4.61092 3.77339 4.95624C3.79682 5.07186 3.8437 5.20311 3.8437 5.20311C3.8437 5.20311 4.21557 4.84999 5.10151 4.82655L6.10464 2.75624Z" fill="url(#paint13_radial_358_521)"/>
<path d="M3.8078 5.23279C3.43749 5.56091 2.93905 6.29373 3.30624 7.2031C3.5828 7.88904 4.5703 8.18591 4.5703 8.18591C4.5703 8.18904 4.76718 8.24841 4.86874 8.24841L5.09999 4.82654C4.62655 4.82654 4.17187 4.96873 3.87812 5.17341C3.8828 5.1781 3.80624 5.2281 3.8078 5.23279Z" fill="url(#paint14_radial_358_521)"/>
<path d="M1.19215 19.3719H3.19684C3.37184 19.3578 3.5109 19.1875 3.5109 18.9781V18.8766C3.5109 18.3172 3.25934 17.8281 2.88278 17.5563C2.88278 17.5797 2.88434 17.6031 2.88434 17.6266C2.88434 18.2672 2.57496 18.786 2.19528 18.786C1.81559 18.786 1.50621 18.2672 1.50621 17.6266C1.50621 17.6031 1.50778 17.5797 1.50778 17.5563C1.13121 17.8297 0.879652 18.3172 0.879652 18.8766V18.9781C0.878089 19.1891 1.01715 19.3578 1.19215 19.3719Z" fill="url(#paint15_linear_358_521)"/>
<path d="M2.19529 18.7875C3.60154 18.7875 2.88435 18.2687 2.88435 17.6281C2.88435 17.6047 2.88279 17.5812 2.88279 17.5578C2.68279 17.4125 2.44686 17.3265 2.19529 17.3265C1.94373 17.3265 1.70779 17.4125 1.50779 17.5578C1.50623 17.5812 1.50623 17.6047 1.50623 17.6281C1.50467 18.2687 0.78123 18.7875 2.19529 18.7875Z" fill="#E14301"/>
<path d="M4.37192 16.6875C4.35473 16.2438 4.02348 15.3281 3.59067 15.2516C3.57785 15.2499 3.56553 15.2456 3.5545 15.2388C3.54346 15.2321 3.53396 15.2231 3.5266 15.2125C3.45785 15.1078 3.23754 14.8266 2.83442 15.0485C2.68442 15.1313 2.63129 15.2047 2.65629 15.311C2.63754 15.3328 2.60317 15.3594 2.55317 15.3391C2.39067 15.1578 2.19067 15.1203 1.95785 15.3016C1.69379 15.5078 1.69379 15.6547 1.74067 15.8L1.7391 15.8016C1.7391 15.8016 1.72817 15.9031 1.6516 15.8953C1.57192 15.8266 1.4766 15.8266 1.32504 15.936C0.918792 16.2297 1.08598 16.5078 1.15473 16.6719C1.14535 16.6875 1.12973 16.6985 1.10473 16.6969C1.0516 16.6688 0.984417 16.6688 0.893792 16.7203C0.678167 16.8438 0.709417 17.25 0.770355 17.3828C0.837542 17.5281 1.20785 18.0375 1.33442 18.1813C1.3641 18.2141 1.40004 18.2375 1.4391 18.2531C1.43485 18.2518 1.43067 18.2503 1.4266 18.2485C1.53754 18.3172 1.73129 18.4 1.92035 18.2828C1.92035 18.2828 2.04067 18.1953 2.0516 18.1031C2.25629 18.2172 2.5391 18.0047 2.5391 18.0047C2.67192 17.9031 2.70629 17.7891 2.7016 17.6906C2.76879 17.7313 2.84223 17.7469 2.91254 17.7485C3.12504 17.7547 3.32035 17.6297 3.32035 17.6297C3.62504 17.4563 3.68598 17.275 3.68442 17.1547C3.84223 17.2531 4.03754 17.1797 4.03754 17.1797C4.38285 17.0235 4.37192 16.6875 4.37192 16.6875Z" fill="url(#paint16_linear_358_521)"/>
<path d="M16.8688 19.3719H18.8751C18.8751 19.3719 18.9626 17.8422 16.5063 17.7687C14.0485 17.6969 16.8688 19.3719 16.8688 19.3719Z" fill="url(#paint17_linear_358_521)"/>
<path d="M15.5406 17.4437C15.5578 17 15.889 16.0844 16.3218 16.0078C16.3484 16.0031 16.3718 15.9906 16.3859 15.9687C16.4546 15.8641 16.6749 15.5828 17.0781 15.8047C17.2281 15.8875 17.2812 15.9609 17.2562 16.0672C17.2749 16.0891 17.3093 16.1156 17.3593 16.0953C17.5218 15.9141 17.7218 15.8766 17.9546 16.0578C18.2187 16.2641 18.2187 16.4109 18.1718 16.5562L18.1734 16.5578C18.1734 16.5578 18.1843 16.6594 18.2609 16.6516C18.3406 16.5828 18.4359 16.5828 18.5874 16.6922C18.9937 16.9859 18.8265 17.2641 18.7578 17.4281C18.7671 17.4437 18.7812 17.4547 18.8078 17.4531C18.8609 17.425 18.9281 17.425 19.0187 17.4766C19.2343 17.6 19.2031 18.0062 19.1421 18.1391C19.0749 18.2844 18.7062 18.7937 18.5781 18.9375C18.5484 18.9703 18.5124 18.9937 18.4734 19.0094C18.4781 19.0078 18.4828 19.0062 18.4859 19.0047C18.3749 19.0734 18.1812 19.1562 17.9921 19.0391C17.9921 19.0391 17.8718 18.9516 17.8609 18.8594C17.6562 18.9734 17.3734 18.7609 17.3734 18.7609C17.2406 18.6594 17.2062 18.5453 17.2109 18.4469C17.1437 18.4875 17.0703 18.5031 16.9999 18.5047C16.7874 18.5109 16.5921 18.3859 16.5921 18.3859C16.2874 18.2125 16.2265 18.0312 16.2281 17.9109C16.0703 18.0094 15.8749 17.9359 15.8749 17.9359C15.5296 17.7797 15.5406 17.4437 15.5406 17.4437Z" fill="url(#paint18_linear_358_521)"/>
<path d="M18.1625 18.9938C18.1359 18.9797 18.1109 18.9641 18.0875 18.9438C18.0844 18.9406 18.0797 18.9375 18.0766 18.9328C18.0328 18.8844 18.0203 18.8063 18.1344 18.65C18.4469 18.2359 18.5703 17.9266 18.5703 17.9266C18.6562 17.7094 18.625 17.6734 18.625 17.6734C18.5953 17.625 18.5344 17.7656 18.5344 17.7656C18.225 18.3234 18.0125 18.5672 17.9203 18.6578C17.9156 18.6609 17.9109 18.6641 17.9062 18.6656C17.8891 18.6766 17.8703 18.6875 17.85 18.6953C17.8422 18.6984 17.8328 18.7016 17.825 18.7047C17.8078 18.7109 17.7891 18.7141 17.7703 18.7172C17.7609 18.7188 17.7516 18.7203 17.7406 18.7203C17.7203 18.7203 17.7 18.7188 17.6781 18.7141C17.6687 18.7125 17.6594 18.7125 17.65 18.7094C17.5988 18.6958 17.551 18.6718 17.5094 18.6391C17.5031 18.6328 17.4953 18.6266 17.4891 18.6203C17.4828 18.6141 17.475 18.6078 17.4688 18.6016C17.4609 18.5922 17.4531 18.5813 17.4453 18.5719C17.4422 18.5672 17.4375 18.5625 17.4344 18.5563C17.4266 18.5438 17.4203 18.5313 17.4141 18.5172C17.4125 18.5125 17.4094 18.5078 17.4078 18.5031C17.4016 18.4891 17.3984 18.4734 17.3953 18.4578L17.3906 18.4438C17.3875 18.4281 17.3875 18.4109 17.3859 18.3953C17.3859 18.3891 17.3844 18.3844 17.3844 18.3797C17.3844 18.3625 17.3875 18.3453 17.3906 18.3281C17.3922 18.3219 17.3922 18.3156 17.3937 18.3078C17.3969 18.2906 17.4047 18.2734 17.4109 18.2547C17.4141 18.2469 17.4156 18.2391 17.4188 18.2328C17.775 17.7297 17.9594 17.2906 17.9594 17.2906C18.0187 17.1688 18.0406 17.0406 18.0406 17.0406C18.0016 16.9688 17.9391 17.0734 17.9391 17.0734C17.5328 17.8297 17.2922 18.1328 17.2922 18.1328C17.2922 18.1328 17.1031 18.4625 16.6891 18.2156C16.6891 18.2156 16.4844 18.0844 16.45 17.9922C16.4203 17.9156 16.4016 17.7797 16.5062 17.5859C16.5062 17.5859 16.7547 17.0781 17.1641 16.4391C17.1641 16.4391 17.1906 16.3391 17.0984 16.3953C17.0266 16.4391 16.975 16.5297 16.95 16.5578C16.95 16.5578 16.7078 16.8813 16.3562 17.5266C16.3562 17.5266 16.2781 17.675 16.1875 17.7484C16.0984 17.7859 15.9859 17.7719 15.8625 17.6797C15.5953 17.4797 15.6953 17.2 15.8438 16.9125C15.925 16.7563 16.1109 16.4047 16.2875 16.1234C16.3047 16.1172 16.3219 16.1109 16.3391 16.1078C16.3953 16.0984 16.4406 16.0688 16.4688 16.025C16.6094 15.8109 16.4984 15.6172 16.3016 15.9156C15.8078 16 15.4578 16.9656 15.4406 17.4422C15.4406 17.4594 15.4328 17.8469 15.8328 18.025C15.8453 18.0297 15.9906 18.0828 16.1469 18.0469C16.1859 18.1766 16.2922 18.3281 16.5406 18.4703C16.5453 18.4734 16.7625 18.6063 17 18.6031C17.0438 18.6016 17.0875 18.5969 17.1281 18.5859C17.1531 18.6672 17.2062 18.7563 17.3125 18.8375C17.325 18.8469 17.5688 19.0297 17.8031 18.9828C17.8484 19.0547 17.9141 19.1047 17.9312 19.1172C18.0031 19.1625 18.0797 19.1859 18.1578 19.1922H18.2281C18.3281 19.1859 18.4328 19.1516 18.5359 19.0875C18.5375 19.0875 18.5375 19.0859 18.5391 19.0859C18.7812 18.9203 19.1297 18.2281 19.1297 18.1578C19.1297 18.1563 18.6047 19.0688 18.1625 18.9938ZM4.44219 16.6C4.42344 16.1234 4.07344 15.1578 3.58125 15.0734C3.38594 14.775 3.27344 14.9688 3.41406 15.1828C3.44219 15.2266 3.48906 15.2547 3.54375 15.2656C3.56094 15.2688 3.57812 15.275 3.59531 15.2813C3.77187 15.5625 3.95781 15.9156 4.03906 16.0703C4.1875 16.3563 4.28594 16.6359 4.02031 16.8375C3.89688 16.9297 3.78594 16.9438 3.69531 16.9063C3.60625 16.8328 3.52656 16.6844 3.52656 16.6844C3.175 16.0391 2.93281 15.7156 2.93281 15.7156C2.90781 15.6875 2.85781 15.5984 2.78437 15.5531C2.69219 15.4969 2.71875 15.5969 2.71875 15.5969C3.12812 16.2344 3.37656 16.7438 3.37656 16.7438C3.48281 16.9375 3.46406 17.0734 3.43281 17.15C3.39844 17.2422 3.19375 17.3734 3.19375 17.3734C2.78125 17.6203 2.59062 17.2906 2.59062 17.2906C2.59062 17.2906 2.34844 16.9875 1.94375 16.2313C1.94375 16.2313 1.87969 16.1266 1.84219 16.1984C1.84219 16.1984 1.86406 16.3266 1.92344 16.4484C1.92344 16.4484 2.10781 16.8859 2.46406 17.3906C2.46719 17.3984 2.46875 17.4063 2.47187 17.4125C2.47812 17.4297 2.48438 17.4484 2.48906 17.4656C2.49063 17.4719 2.49062 17.4781 2.49219 17.4859C2.49531 17.5031 2.49844 17.5203 2.49844 17.5375C2.49844 17.5438 2.49687 17.5484 2.49687 17.5531C2.49687 17.5703 2.49531 17.5859 2.49219 17.6016C2.49062 17.6063 2.48906 17.6109 2.48906 17.6156C2.48594 17.6313 2.48125 17.6469 2.475 17.6609C2.47344 17.6656 2.47031 17.6703 2.46875 17.675C2.4625 17.6875 2.45625 17.7016 2.44844 17.7141C2.44531 17.7188 2.44063 17.7234 2.4375 17.7297C2.42969 17.7406 2.42188 17.75 2.41406 17.7594C2.40781 17.7656 2.4 17.7719 2.39375 17.7781C2.3875 17.7844 2.38125 17.7906 2.37344 17.7969C2.35937 17.8078 2.34375 17.8188 2.32969 17.8266C2.29531 17.8453 2.2625 17.8594 2.23281 17.8672C2.22344 17.8703 2.21406 17.8703 2.20312 17.8719C2.18125 17.875 2.16094 17.8781 2.14062 17.8781C2.13125 17.8781 2.12031 17.8766 2.11094 17.875C2.09219 17.8719 2.07344 17.8688 2.05625 17.8625C2.04844 17.8594 2.03906 17.8563 2.03125 17.8531C2.0125 17.8453 1.99375 17.8344 1.975 17.8234C1.97031 17.8203 1.96563 17.8188 1.96094 17.8156C1.86875 17.725 1.65625 17.4813 1.34687 16.9234C1.34687 16.9234 1.28594 16.7828 1.25625 16.8313C1.25625 16.8313 1.225 16.8688 1.31094 17.0844C1.31094 17.0844 1.43438 17.3938 1.74688 17.8078C1.86094 17.9641 1.84844 18.0422 1.80469 18.0906C1.80156 18.0938 1.79687 18.0969 1.79375 18.1016C1.77187 18.1219 1.74531 18.1375 1.71875 18.1516C1.27656 18.2281 0.75 17.3141 0.75 17.3141C0.75 17.3859 1.09844 18.0781 1.34062 18.2422C1.34219 18.2422 1.34219 18.2438 1.34375 18.2438C1.44688 18.3078 1.55 18.3422 1.65156 18.3484H1.72188C1.80156 18.3422 1.87813 18.3188 1.94844 18.2734C1.96563 18.2609 2.03125 18.2094 2.07656 18.1391C2.31094 18.1859 2.55625 18.0031 2.56719 17.9938C2.67344 17.9125 2.72656 17.8234 2.75156 17.7422C2.79219 17.7531 2.83437 17.7594 2.87969 17.7594C3.11719 17.7641 3.33437 17.6297 3.33906 17.6266C3.5875 17.4859 3.69375 17.3328 3.73281 17.2031C3.88906 17.2375 4.03437 17.1859 4.04687 17.1813C4.45156 17.0047 4.44375 16.6172 4.44219 16.6Z" fill="#EDBD82"/>
<path d="M17.1875 19.3719V12.6828C17.1875 12.1234 16.7312 11.6672 16.1719 11.6672H3.82812C3.26875 11.6672 2.8125 12.1234 2.8125 12.6828V19.3734H17.1875V19.3719Z" fill="url(#paint19_linear_358_521)"/>
<path d="M12.3422 19.3719C12.2469 19.0703 12.1219 18.7297 12.0156 18.3672C11.8016 17.639 11.7125 16.4234 11.675 15.575C11.6516 15.039 11.2078 14.6156 10.6672 14.6156H9.33125C8.79063 14.6156 8.34688 15.0375 8.32344 15.575C8.28594 16.4234 8.19687 17.639 7.98281 18.3672C7.87656 18.7297 7.75312 19.0703 7.65625 19.3719H12.3422Z" fill="url(#paint20_linear_358_521)"/>
</g>
<defs>
<linearGradient id="paint0_linear_358_521" x1="10" y1="1.32969" x2="10" y2="13.7614" gradientUnits="userSpaceOnUse">
<stop offset="0.003" stop-color="#424242"/>
<stop offset="0.271" stop-color="#353535"/>
<stop offset="0.764" stop-color="#131313"/>
<stop offset="1"/>
</linearGradient>
<linearGradient id="paint1_linear_358_521" x1="10" y1="1.32969" x2="10" y2="13.7614" gradientUnits="userSpaceOnUse">
<stop offset="0.001" stop-color="#BFBEBE"/>
<stop offset="0.15" stop-color="#212121" stop-opacity="0"/>
<stop offset="0.776" stop-color="#212121" stop-opacity="0"/>
<stop offset="1" stop-color="#BFBEBE"/>
</linearGradient>
<linearGradient id="paint2_linear_358_521" x1="0.717451" y1="7.5" x2="19.365" y2="7.5" gradientUnits="userSpaceOnUse">
<stop offset="0.001" stop-color="#BFBEBE"/>
<stop offset="0.1" stop-color="#212121" stop-opacity="0"/>
<stop offset="0.9" stop-color="#212121" stop-opacity="0"/>
<stop offset="1" stop-color="#BFBEBE"/>
</linearGradient>
<radialGradient id="paint3_radial_358_521" cx="0" cy="0" r="1" gradientUnits="userSpaceOnUse" gradientTransform="translate(12.2786 12.8216) scale(3.65922 1.79741)">
<stop offset="0.728" stop-color="#454140" stop-opacity="0"/>
<stop offset="1" stop-color="#454140"/>
</radialGradient>
<radialGradient id="paint4_radial_358_521" cx="0" cy="0" r="1" gradientUnits="userSpaceOnUse" gradientTransform="translate(15.883 12.2772) rotate(154.924) scale(1.08135 0.802209)">
<stop offset="0.663" stop-color="#454140"/>
<stop offset="1" stop-color="#454140" stop-opacity="0"/>
</radialGradient>
<radialGradient id="paint5_radial_358_521" cx="0" cy="0" r="1" gradientUnits="userSpaceOnUse" gradientTransform="translate(13.0805 9.2187) rotate(-94.2783) scale(4.74978 3.95864)">
<stop offset="0.725" stop-color="#454140" stop-opacity="0"/>
<stop offset="1" stop-color="#454140"/>
</radialGradient>
<radialGradient id="paint6_radial_358_521" cx="0" cy="0" r="1" gradientUnits="userSpaceOnUse" gradientTransform="translate(6.92313 9.21862) rotate(-85.7217) scale(4.74978 3.95863)">
<stop offset="0.725" stop-color="#454140" stop-opacity="0"/>
<stop offset="1" stop-color="#454140"/>
</radialGradient>
<radialGradient id="paint7_radial_358_521" cx="0" cy="0" r="1" gradientUnits="userSpaceOnUse" gradientTransform="translate(7.72487 12.8216) rotate(180) scale(3.65922 1.79741)">
<stop offset="0.728" stop-color="#454140" stop-opacity="0"/>
<stop offset="1" stop-color="#454140"/>
</radialGradient>
<radialGradient id="paint8_radial_358_521" cx="0" cy="0" r="1" gradientUnits="userSpaceOnUse" gradientTransform="translate(4.12091 12.2773) rotate(25.0761) scale(1.08135 0.802209)">
<stop offset="0.663" stop-color="#454140"/>
<stop offset="1" stop-color="#454140" stop-opacity="0"/>
</radialGradient>
<radialGradient id="paint9_radial_358_521" cx="0" cy="0" r="1" gradientUnits="userSpaceOnUse" gradientTransform="translate(12.8152 6.71258) rotate(72.0851) scale(5.56757 4.131)">
<stop offset="0.699" stop-color="#454140" stop-opacity="0"/>
<stop offset="1" stop-color="#454140"/>
</radialGradient>
<radialGradient id="paint10_radial_358_521" cx="0" cy="0" r="1" gradientUnits="userSpaceOnUse" gradientTransform="translate(7.38762 0.642231) rotate(28.2026) scale(1.45987 1.73098)">
<stop offset="0.58" stop-color="#454140"/>
<stop offset="1" stop-color="#454140" stop-opacity="0"/>
</radialGradient>
<radialGradient id="paint11_radial_358_521" cx="0" cy="0" r="1" gradientUnits="userSpaceOnUse" gradientTransform="translate(10.6481 3.29291) rotate(-157.19) scale(4.56158 2.56363)">
<stop offset="0.699" stop-color="#454140" stop-opacity="0"/>
<stop offset="1" stop-color="#454140"/>
</radialGradient>
<radialGradient id="paint12_radial_358_521" cx="0" cy="0" r="1" gradientUnits="userSpaceOnUse" gradientTransform="translate(6.80142 1.974) scale(1.33984 1.63903)">
<stop offset="0.702" stop-color="#454140" stop-opacity="0"/>
<stop offset="1" stop-color="#454140"/>
</radialGradient>
<radialGradient id="paint13_radial_358_521" cx="0" cy="0" r="1" gradientUnits="userSpaceOnUse" gradientTransform="translate(6.61677 4.33914) rotate(-164.942) scale(2.51306 2.35177)">
<stop offset="0.66" stop-color="#454140" stop-opacity="0"/>
<stop offset="1" stop-color="#454140"/>
</radialGradient>
<radialGradient id="paint14_radial_358_521" cx="0" cy="0" r="1" gradientUnits="userSpaceOnUse" gradientTransform="translate(6.02119 6.76547) rotate(7.83355) scale(2.63852 3.70756)">
<stop offset="0.598" stop-color="#454140" stop-opacity="0"/>
<stop offset="1" stop-color="#454140"/>
</radialGradient>
<linearGradient id="paint15_linear_358_521" x1="0.87887" y1="18.4649" x2="3.51043" y2="18.4649" gradientUnits="userSpaceOnUse">
<stop stop-color="#FB8C00"/>
<stop offset="0.482" stop-color="#F67F00"/>
<stop offset="1" stop-color="#EF6C00"/>
</linearGradient>
<linearGradient id="paint16_linear_358_521" x1="3.19192" y1="17.6433" x2="1.67926" y2="15.4906" gradientUnits="userSpaceOnUse">
<stop stop-color="#FFD29C"/>
<stop offset="0.5" stop-color="#F9DDBD"/>
</linearGradient>
<linearGradient id="paint17_linear_358_521" x1="15.5005" y1="18.57" x2="18.8749" y2="18.57" gradientUnits="userSpaceOnUse">
<stop stop-color="#FB8C00"/>
<stop offset="0.482" stop-color="#F67F00"/>
<stop offset="1" stop-color="#EF6C00"/>
</linearGradient>
<linearGradient id="paint18_linear_358_521" x1="16.7215" y1="18.4" x2="18.234" y2="16.2473" gradientUnits="userSpaceOnUse">
<stop stop-color="#FFD29C"/>
<stop offset="0.5" stop-color="#F9DDBD"/>
</linearGradient>
<linearGradient id="paint19_linear_358_521" x1="10" y1="11.6447" x2="10" y2="22.3342" gradientUnits="userSpaceOnUse">
<stop stop-color="#4DD0E1"/>
<stop offset="1" stop-color="#00BCD4"/>
</linearGradient>
<linearGradient id="paint20_linear_358_521" x1="9.99984" y1="14.4681" x2="9.99984" y2="20.6053" gradientUnits="userSpaceOnUse">
<stop stop-color="#00BCD4"/>
<stop offset="1" stop-color="#0097A7"/>
</linearGradient>
<clipPath id="clip0_358_521">
<rect width="20" height="20" fill="white"/>
</clipPath>
</defs>
</svg>
