<svg width="20" height="20" viewBox="0 0 20 20" fill="none" xmlns="http://www.w3.org/2000/svg">
<path d="M12.0891 3.01877C7.31722 0.501582 2.97347 2.29533 1.40784 4.74689C0.895342 5.54846 0.532842 7.00627 0.546904 8.16252C0.575029 10.5422 1.89222 13.1938 4.7344 15.8688C8.23128 19.1594 11.8 18.8719 12.9344 18.5953C14.3625 18.2469 15.3203 17.95 15.1735 16.6188C15.1547 16.4438 15.0047 16.1266 14.7782 15.9875C14.0516 15.5469 12.5344 15.3172 11.8203 14.2563C10.7828 12.711 12.0735 12.6328 13.3094 13.2938C14.6328 14.0016 15.3891 14.4438 16.7172 14.3219C17.6907 14.2328 19.1063 13.6453 19.2985 12.0031C19.4703 10.5172 17.3016 5.76877 12.0891 3.01877ZM14.0375 11.0938C13.6719 11.65 12.7688 11.4594 12.1766 10.9344C11.5844 10.4094 11.5078 9.53439 11.8922 9.19064C12.2828 8.84221 13.0172 8.92189 13.6094 9.44689C14.2 9.97346 14.3235 10.6563 14.0375 11.0938Z" fill="#AC5810"/>
<path d="M12.2985 2.45159C7.52659 -0.0655961 3.17191 1.88128 1.60628 4.33284C0.0390939 6.78597 0.720344 11.3282 4.94222 15.3016C8.43909 18.5922 12.0078 18.3047 13.1422 18.0282C14.5703 17.6797 15.5782 17 14.95 16.1328C14.5172 15.5344 12.9657 15.0828 12.0297 13.6891C10.9922 12.1438 12.2828 12.0657 13.5188 12.7266C14.8422 13.4344 15.5985 13.8766 16.9266 13.7547C17.9 13.6657 19.3719 12.9125 19.3282 11.3907C19.2828 9.89534 17.511 5.20315 12.2985 2.45159ZM14.4953 11.05C14.05 11.5313 13.1016 11.4 12.3766 10.7594C11.6532 10.1172 11.4266 9.20784 11.8719 8.72815C12.3172 8.2469 13.2657 8.37815 13.9907 9.01878C14.7157 9.6594 14.9407 10.5703 14.4953 11.05Z" fill="#F2A259"/>
<path d="M7.44058 13.2282C7.62026 12.7688 8.89839 12.2657 10.0734 13.1016C10.4031 13.336 10.8156 13.9328 10.7734 14.6828C10.6359 17.1328 6.61558 15.3422 7.44058 13.2282Z" fill="#EEEEEE"/>
<path d="M3.70784 9.07345C4.11878 8.4172 5.11722 8.3422 5.99065 8.90939C6.76878 9.41408 7.41878 10.6563 6.4594 11.4688C5.94534 11.9047 5.05628 11.6344 4.50784 11.2141C3.84222 10.7063 3.26565 9.7797 3.70784 9.07345Z" fill="#2686C6"/>
<path d="M9.01098 3.34686C9.13754 2.82655 10.0204 2.73749 10.6454 2.9703C11.725 3.37343 12.2141 4.44218 11.8157 5.03749C11.2329 5.9078 9.96254 5.60936 9.48129 5.11093C8.66411 4.26718 8.90473 3.7828 9.01098 3.34686Z" fill="#FFEE58"/>
<path d="M15.2672 5.89375C16.1328 6.2875 16.2453 6.91094 16.0797 7.36562C15.9766 7.64687 15.7656 8.03281 15.3344 8.06719C14.6047 8.12656 14.5031 7.52344 13.9828 7.35781C13.5453 7.21875 13.3672 6.62031 13.5391 6.21875C13.6985 5.84844 14.1641 5.39062 15.2672 5.89375Z" fill="#7CB342"/>
<path d="M10.464 15.15C10.2484 15.3453 9.49996 15.586 8.54996 14.9922C8.22808 14.7906 7.92027 14.4985 7.74683 14.061C7.61089 13.7172 7.64058 13.386 7.70152 13.2391C7.87652 12.8156 8.14371 12.7375 8.14371 12.7375C7.87496 12.7188 7.36714 13.075 7.28277 13.5422C7.25621 13.6891 7.06714 14.6078 8.28433 15.4406C9.33277 16.1594 10.8828 16.0922 10.7812 14.6453C10.7343 14.8235 10.6015 15.0266 10.464 15.15Z" fill="#B0B0B0"/>
<path d="M6.91564 10.2688C6.88595 10.8266 6.23283 11.1203 5.86876 11.1219C4.83908 11.1234 3.91408 10.4766 3.85001 9.325C3.83908 9.11875 3.94064 8.82031 3.94064 8.82031C3.8047 8.87813 3.61251 9.17187 3.57189 9.3375C3.33126 10.3312 4.33283 11.4891 5.38751 11.7234C5.92189 11.8422 6.59533 11.6594 6.84064 11.1812C7.01564 10.8406 6.98126 10.5484 6.91564 10.2688Z" fill="#01579B"/>
<path d="M10.5187 5.11251C9.81874 5.03282 9.43124 4.57501 9.32968 4.47032C9.05156 4.1797 8.87968 3.89689 8.97968 3.47814C9.01093 3.34376 9.08749 3.17189 9.18124 3.07501C9.06718 3.11251 8.88281 3.35782 8.82499 3.49064C8.76562 3.62345 8.54999 4.12189 9.01249 4.73595C9.29843 5.1172 9.79687 5.54689 10.5344 5.65001C11.0578 5.72345 11.4328 5.53595 11.7453 5.23126C11.9578 5.02345 12.0516 4.5547 11.925 4.31251C11.9453 4.48907 11.6219 5.23907 10.5187 5.11251Z" fill="#DF7F14"/>
<path d="M16.2765 7.0078C16.2125 6.77186 16.0297 6.52655 16.0109 6.51405C16.0906 6.66718 16.2484 7.12655 15.9172 7.57343C15.75 7.79843 15.2469 8.07499 14.6531 7.59374C14.4781 7.45155 14.3375 7.31093 14.0219 7.1953C13.2203 6.89999 13.5703 6.08436 13.8484 5.83124C13.6297 5.9453 13.4312 6.14999 13.3484 6.46249C13.2328 6.89843 13.5187 7.35468 13.9531 7.57343C14.4469 7.82186 14.6062 8.30155 15.2828 8.30155C15.3172 8.30155 15.3531 8.29999 15.3922 8.29686C15.8484 8.2578 16.0406 8.08124 16.1797 7.86561C16.35 7.59686 16.3547 7.29217 16.2765 7.0078Z" fill="#558B2F"/>
<path d="M4.03432 4.02968C4.39057 3.67812 5.01088 3.30625 5.9187 3.77968C6.46557 4.06406 7.10151 4.39843 6.81401 5.55468C6.63588 6.27187 5.59213 6.65156 4.72026 5.85312C4.37495 5.5375 3.06245 4.98906 4.03432 4.02968Z" fill="#F44336"/>
<path d="M7.02193 5.40001C7.03286 5.12657 6.89224 4.79376 6.8438 4.68126C6.85161 4.84532 6.9938 5.25939 6.34224 5.80782C6.11568 5.99845 5.70474 6.14376 5.2563 5.9672C5.02662 5.87657 4.69693 5.49689 4.46099 5.40157C3.58443 5.04845 3.96255 4.10939 4.08599 3.98126C3.88755 4.12032 3.7188 4.3422 3.6563 4.66564C3.57505 5.08907 3.65005 5.48907 4.2313 5.94689C5.8813 7.24845 6.38755 6.46407 6.56724 6.26407C6.7938 6.02032 7.00943 5.70157 7.02193 5.40001Z" fill="#C62828"/>
<path d="M10.2718 3.02499C10.0421 2.91718 9.38588 2.94843 9.25932 3.4953C9.18275 3.82343 9.42338 4.15624 9.64994 4.11718C9.90775 4.07343 9.77025 3.67187 9.92494 3.5578C10.1609 3.38593 10.5937 3.17655 10.2718 3.02499ZM5.43119 3.82187C5.20463 3.67187 4.48119 3.6703 4.264 4.22499C4.13275 4.5578 4.33744 4.94374 4.58275 4.93749C4.86244 4.93124 4.72807 4.60155 4.96088 4.39218C5.25463 4.12812 5.74838 4.03124 5.43119 3.82187ZM5.32338 8.82812C5.10932 8.69218 4.47494 8.63905 4.21244 9.13593C4.02025 9.50155 4.28432 9.90468 4.514 9.89374C4.77494 9.88124 4.68744 9.46562 4.85463 9.37187C5.10932 9.22968 5.62338 9.01874 5.32338 8.82812ZM8.96869 12.9891C8.739 12.8812 8.08275 12.9125 7.95619 13.4594C7.87963 13.7875 8.12025 14.1203 8.34682 14.0812C8.60463 14.0375 8.46713 13.6359 8.62182 13.5219C8.85619 13.35 9.289 13.1406 8.96869 12.9891ZM14.8562 5.9453C14.6499 5.79843 13.9984 5.71249 13.7765 6.22812C13.6437 6.53749 13.8203 6.9078 14.0499 6.90937C14.3109 6.91093 14.2468 6.49218 14.4203 6.4078C14.6812 6.28124 15.1453 6.15155 14.8562 5.9453Z" fill="white"/>
</svg>
