<svg width="20" height="20" viewBox="0 0 20 20" fill="none" xmlns="http://www.w3.org/2000/svg">
<g clip-path="url(#clip0_358_511)">
<path opacity="0.6" d="M7.44214 1.97968C10.5437 1.97968 12.8796 4.31561 12.8796 7.41718C12.8796 10.5187 10.3562 13.0437 7.25464 13.0437C4.15308 13.0437 1.81714 10.7078 1.81714 7.60624C1.81714 4.50468 4.34058 1.97968 7.44214 1.97968Z" fill="#81D4FA"/>
<path d="M7.44218 1.97967C10.5437 1.97967 12.8797 4.3156 12.8797 7.41717C12.8797 10.5187 10.3562 13.0437 7.25468 13.0437C4.15312 13.0437 1.81718 10.7078 1.81718 7.60623C1.81718 4.50467 4.34062 1.97967 7.44218 1.97967ZM2.81562 2.62029C-0.259382 5.69529 1.24999 10.1875 2.45156 11.414C4.67499 13.6828 8.83124 14.975 11.9406 11.864C14.8203 8.98435 13.7859 5.33279 11.7578 3.09998C10.4109 1.61873 5.88906 -0.453145 2.81562 2.62029Z" fill="#616161"/>
<path d="M15.5907 14.1969L14.2891 15.5062L11.2235 12.4125C11.2235 12.4125 10.9641 11.9141 11.4766 11.4016C11.9891 10.8891 12.525 11.1031 12.525 11.1031L15.5907 14.1969Z" fill="#BDBDBD"/>
<path d="M13.8281 12.025C13.6515 11.8844 13.039 11.5562 12.3656 12.225C11.6937 12.8937 11.9672 13.4219 12.1 13.6172C12.1 13.6172 16.8703 18.9094 17.0875 19.1281C17.4078 19.4484 18.0656 19.175 18.675 18.5656C19.2844 17.9562 19.5781 17.3672 19.2344 17.0234C18.9547 16.7437 14.0047 12.1656 13.8281 12.025Z" fill="#616161"/>
<path d="M6.86255 1.35001C9.96411 1.35001 12.4875 3.87345 12.4875 6.97501C12.4875 10.0766 9.96411 12.6 6.86255 12.6C3.76099 12.6 1.23755 10.0766 1.23755 6.97501C1.23755 3.87345 3.76099 1.35001 6.86255 1.35001ZM6.86255 0.731262C3.41567 0.731262 0.620361 3.52658 0.620361 6.97345C0.620361 10.4203 3.41567 13.2156 6.86255 13.2156C10.3094 13.2156 13.1047 10.4219 13.1047 6.97345C13.1047 3.52501 10.3094 0.731262 6.86255 0.731262Z" fill="#BDBDBD"/>
<path d="M18.6758 18.5661C19.2402 18.0016 19.5217 17.368 19.3045 17.1508C19.0872 16.9335 18.4536 17.215 17.8892 17.7794C17.3247 18.3439 17.0433 18.9775 17.2605 19.1948C17.4778 19.412 18.1114 19.1305 18.6758 18.5661Z" fill="#424242"/>
<path d="M4.1438 3.68748C3.12505 4.75466 2.72505 5.93591 2.71568 7.24841C2.71255 7.73123 2.77974 8.24216 3.07818 8.62029C3.37662 8.99841 3.9688 9.1781 4.35943 8.89529C4.6188 8.70779 4.72662 8.38123 4.85318 8.08904C5.04693 7.6406 5.31724 7.22341 5.65005 6.86404C6.06568 6.41404 6.57505 6.05466 6.97193 5.58904C7.3688 5.12341 7.65162 4.49373 7.49224 3.90154C7.33443 3.32185 6.76255 2.91248 6.16724 2.84529C5.57193 2.7781 4.7313 3.07185 4.1438 3.68748Z" fill="url(#paint0_linear_358_511)"/>
<path opacity="0.59" d="M10.0078 11.8406C10.0078 11.7688 10.0422 11.7031 10.1 11.661C10.4047 11.4438 11.225 10.936 11.9328 9.58596C12.3437 8.79846 12.5 8.14221 12.5437 7.90784C12.6672 7.24534 13.0141 7.46721 12.9656 7.89534C12.9094 8.38284 12.4859 10.5281 10.3594 12.0172C10.2109 12.1219 10.0078 12.0219 10.0078 11.8406ZM4.12343 1.77971C4.10312 1.98284 3.75781 2.17502 3.69687 2.21409C3.38125 2.41721 2.6 2.81565 1.88593 4.16252C1.55312 4.78909 1.31406 5.4344 1.23281 5.75471C1.1 6.27815 0.742184 6.17346 0.810934 5.7469C0.889059 5.26252 1.4125 3.13909 3.60468 1.75002C3.75937 1.65315 4.15 1.51096 4.12343 1.77971Z" fill="white"/>
<path d="M8.73755 11.5516C8.04224 11.6781 7.83599 11.3875 7.92349 11.0985C7.99224 10.8688 8.24849 10.7703 8.47817 10.7016C9.70317 10.3344 10.7376 9.32034 11.4891 8.31409C11.5063 9.18752 11.2766 9.69377 10.8563 10.2125C10.4454 10.7172 9.8063 11.3563 8.73755 11.5516Z" fill="url(#paint1_linear_358_511)"/>
</g>
<defs>
<linearGradient id="paint0_linear_358_511" x1="3.18521" y1="2.81623" x2="5.74708" y2="6.97123" gradientUnits="userSpaceOnUse">
<stop offset="0.285" stop-color="white"/>
<stop offset="1" stop-color="white" stop-opacity="0"/>
</linearGradient>
<linearGradient id="paint1_linear_358_511" x1="9.21114" y1="14.9233" x2="9.85708" y2="8.24877" gradientUnits="userSpaceOnUse">
<stop offset="0.285" stop-color="white"/>
<stop offset="1" stop-color="white" stop-opacity="0"/>
</linearGradient>
<clipPath id="clip0_358_511">
<rect width="20" height="20" fill="white"/>
</clipPath>
</defs>
</svg>
