<svg width="20" height="20" viewBox="0 0 20 20" fill="none" xmlns="http://www.w3.org/2000/svg">
<path d="M17.9844 7.06561C16.9344 7.06561 9.7625 7.17968 9.7625 7.17968C9.19219 7.17968 9.08594 7.1953 9.24375 6.98592C9.40156 6.77655 10.0047 6.5703 10.4047 5.0828C10.7047 3.9703 10.2469 2.57342 9.56875 2.21249C9.26719 2.05155 8.64531 2.02499 8.41406 2.5453C8.19219 3.04374 8.16875 4.04686 7.53281 4.88436C6.75469 5.90936 6.10938 5.94843 4.90781 6.6078C3.94844 7.1328 3.20937 8.4203 2.67812 8.69686C2.29375 8.89843 1.8 8.88905 1.30625 8.86718C1.11719 8.85936 0.946875 8.98436 0.901563 9.16874C0.792187 9.60936 0.625 10.5312 0.625 12.0719C0.625 13.5922 0.7875 14.5094 0.898438 14.9578C0.945312 15.1484 1.12344 15.2766 1.31875 15.2578C1.84062 15.2094 2.39688 15.1391 2.79219 15.2922C3.33594 15.5016 4.09219 16.1937 5.04531 16.7578C7.27656 18.0781 9.62031 17.9312 10.9641 17.8187C12.0031 17.7328 13.3094 17.0859 13.5047 16.2312C13.6047 15.7937 13.4922 15.4859 13.2266 15.1656C13.1656 15.0906 13.2188 14.9781 13.3109 14.9484C13.7078 14.8203 14.3203 14.5484 14.3734 13.7375C14.4172 13.0734 14.0281 12.7922 13.8172 12.5578C13.7547 12.4875 13.8062 12.4141 13.8953 12.3828C14.275 12.2531 14.9359 11.7781 14.9125 11.0516C14.8859 10.2125 14.2469 9.8953 13.7781 9.74686C13.6938 9.7203 14.2594 9.52811 14.3484 9.52186C14.3484 9.52186 16.6734 9.33905 17.6734 9.17342C18.6219 9.01717 19.5063 8.76561 19.3453 7.8453C19.2812 7.4578 19.0359 7.06561 17.9844 7.06561Z" fill="#FFCA28"/>
<path d="M11.7235 9.53746C12.0766 9.78277 12.7406 10.2015 12.7766 10.9515C12.811 11.675 12.2266 11.9359 12.1625 12.3015C12.0766 12.8 12.4313 12.8578 12.3938 13.55C12.3578 14.214 11.9094 14.3437 11.8453 14.8125C11.8047 15.1109 12.1266 15.375 12.0688 16.0968C12.0453 16.3968 11.7438 17.0203 11.1813 17.2515C10.7688 17.4203 11.5172 17.7406 11.736 17.6781C12.4453 17.475 13.3078 17.0281 13.5016 16.2484L13.5063 16.2265C13.6063 15.789 13.4938 15.4812 13.2281 15.1609C13.1672 15.0859 13.2203 14.9734 13.3125 14.9437C13.7094 14.8156 14.3219 14.5437 14.375 13.7328C14.4188 13.0687 14.0297 12.7875 13.8188 12.5531C13.7563 12.4828 13.8078 12.4093 13.8969 12.3781C14.2766 12.2484 14.9375 11.7734 14.9141 11.0468C14.8875 10.2078 14.2485 9.89058 13.7797 9.74215C13.7485 9.7359 12.1313 9.43433 11.7235 9.53746Z" fill="#FFB300"/>
<path d="M9.10781 7.01565C9.05 6.7719 9.27656 6.56877 9.39062 6.44065C9.75 6.04221 9.97813 5.57815 10.0969 5.23284C10.5297 3.97034 10.1328 3.0094 9.89375 2.47034C9.89375 2.47034 11.1 3.61565 10.6375 5.49221C10.4813 6.12502 10.1891 6.57346 9.8125 6.97502C9.49844 7.31096 9.16094 7.24221 9.10781 7.01565ZM10.9656 17.8172C11.8266 17.7453 12.8406 17.336 13.2875 16.7172C13.3328 16.6547 13.2547 16.5781 13.1953 16.6281C12.8766 16.8938 12.2563 17.2391 11.1281 17.3078C8.45938 17.4703 6.77813 17.2407 5.28438 16.3563C4.87344 16.1125 4.49219 15.8391 4.15469 15.5969C3.70469 15.2735 3.41563 15.0781 3.05469 14.9547C2.07031 14.6188 1.32031 15.2578 1.32031 15.2578C1.84219 15.2094 2.39844 15.1391 2.79375 15.2922C3.3375 15.5016 4.09375 16.1938 5.04688 16.7578C7.27656 18.0781 9.62031 17.9297 10.9656 17.8172ZM12.9469 9.88127C12.0266 9.93596 11.6156 9.54534 11.6156 9.54534C11.6156 9.54534 11.8531 9.40471 12.85 9.26409C12.85 9.26409 17.5828 8.92346 18.3141 8.83752C19.2391 8.72971 19.3688 8.04221 19.3688 8.04221C19.3688 8.04221 19.5406 9.1094 18.2359 9.32034C17.2625 9.47971 13.8672 9.82659 12.9469 9.88127ZM12.4156 14.5266C12.0406 14.4985 11.8844 14.5953 11.8453 14.8047C11.8063 15.0141 12.0328 15.1141 12.4594 15.1C13.5375 15.0672 14.275 14.6203 14.3391 13.9422C14.3391 13.9422 13.9484 14.6406 12.4156 14.5266ZM12.725 11.9813C12.3875 11.9688 12.1938 12.0953 12.1672 12.3391C12.1406 12.5828 12.4031 12.6672 12.6547 12.6641C13.7375 12.65 14.8422 12.1016 14.9016 11.2516C14.9016 11.2516 14.4875 12.05 12.725 11.9813Z" fill="#EDA600"/>
</svg>
