<svg width="20" height="20" viewBox="0 0 20 20" fill="none" xmlns="http://www.w3.org/2000/svg">
<path d="M18.6953 15.9516H1.30469C0.929688 15.9516 0.625 15.6469 0.625 15.2719V4.73127C0.625 4.35471 0.929687 4.04846 1.30781 4.04846H18.6938C19.0703 4.04846 19.3766 4.35315 19.3766 4.73127V15.2719C19.3758 15.4522 19.3038 15.6249 19.1761 15.7522C19.0485 15.8796 18.8756 15.9513 18.6953 15.9516Z" fill="#2E7D32"/>
<path d="M18.7156 14.0485H1.28438C1.19778 14.0485 1.11204 14.0314 1.03204 13.9983C0.952044 13.9651 0.879355 13.9166 0.818126 13.8553C0.69447 13.7317 0.625 13.564 0.625 13.3891V4.73127C0.625 4.35471 0.929687 4.04846 1.30781 4.04846H18.6938C19.0703 4.04846 19.3766 4.35315 19.3766 4.73127V13.3891C19.3759 13.564 19.306 13.7316 19.1822 13.8552C19.0583 13.9787 18.8906 14.0482 18.7156 14.0485Z" fill="#66BB6A"/>
<path d="M6.19996 10.2141C6.19996 10.0219 6.13277 9.85939 5.9984 9.72814C5.86402 9.59689 5.6359 9.47657 5.31559 9.37032C4.87027 9.23439 4.54527 9.05782 4.34215 8.83907C4.13746 8.62032 4.0359 8.3422 4.0359 8.00626C4.0359 7.66251 4.1359 7.38126 4.3359 7.16251C4.5359 6.9422 4.8109 6.81251 5.15934 6.77032V6.22814C5.15934 6.14845 5.22496 6.08282 5.30465 6.08282H5.48121C5.5609 6.08282 5.62652 6.14845 5.62652 6.22814V6.77345C5.97809 6.82189 6.25152 6.96876 6.44684 7.21564C6.62184 7.43751 6.71871 7.73126 6.73746 8.09845C6.74059 8.17033 6.68121 8.2297 6.60934 8.2297H6.2859C6.21715 8.2297 6.16402 8.17501 6.15777 8.10626C6.14059 7.8672 6.07184 7.67345 5.95152 7.52501C5.8109 7.35157 5.62184 7.26407 5.38434 7.26407C5.1359 7.26407 4.94527 7.32814 4.81402 7.45782C4.68277 7.58595 4.61559 7.7672 4.61559 7.99689C4.61559 8.21095 4.6859 8.38126 4.82496 8.50782C4.96402 8.63439 5.19371 8.75001 5.51246 8.85314C5.83121 8.95626 6.07965 9.07032 6.25934 9.19532C6.43746 9.32032 6.57027 9.46407 6.65465 9.6297C6.73902 9.79532 6.78121 9.98907 6.78121 10.2109C6.78121 10.5641 6.67496 10.8484 6.46246 11.0641C6.24996 11.2797 5.95309 11.4078 5.57027 11.4469V11.9C5.57027 11.9797 5.50465 12.0453 5.42496 12.0453H5.24996C5.17027 12.0453 5.10465 11.9797 5.10465 11.9V11.4469C4.71559 11.411 4.4109 11.2734 4.19059 11.0313C3.99371 10.8156 3.88434 10.5313 3.86402 10.1797C3.85934 10.1078 3.92027 10.0484 3.99215 10.0484H4.31871C4.38434 10.0484 4.44059 10.0969 4.44527 10.1625C4.46246 10.3984 4.53746 10.5844 4.67027 10.7203C4.8234 10.8766 5.03902 10.9563 5.32027 10.9563C5.59371 10.9563 5.80934 10.8906 5.96715 10.7578C6.12184 10.6219 6.19996 10.4422 6.19996 10.2141Z" fill="white"/>
<path d="M5.5688 11.5766L5.10474 11.4438L5.15786 6.7844V6.62659L5.62505 6.7719L5.5688 11.4406V11.5766Z" fill="white"/>
<path opacity="0.5" d="M13.2468 11.9391C14.8433 11.9391 16.1375 10.6449 16.1375 9.04846C16.1375 7.45201 14.8433 6.15784 13.2468 6.15784C11.6504 6.15784 10.3562 7.45201 10.3562 9.04846C10.3562 10.6449 11.6504 11.9391 13.2468 11.9391Z" fill="#2E7D32"/>
<path d="M16.6328 5.17187C16.7672 6.01562 17.436 6.68437 18.2797 6.81875V11.2781C17.436 11.4125 16.7672 12.0813 16.6328 12.925H3.3469C3.17502 12.1266 2.52502 11.5109 1.71877 11.3828V6.92344C2.59846 6.78438 3.28596 6.06562 3.37971 5.17187H16.6328ZM16.9203 4.85938H3.07659C3.07815 4.89375 3.07971 4.92813 3.07971 4.96406C3.07971 5.8875 2.33127 6.63594 1.40784 6.63594V11.6719C2.29534 11.6719 3.0219 12.3641 3.07659 13.2391H16.9219C16.9219 12.3156 17.6703 11.5672 18.5938 11.5672V6.53125C17.6688 6.53125 16.9203 5.78281 16.9203 4.85938Z" fill="#2E7D32"/>
<path d="M8.28125 4.04846H11.7203V15.9516H8.28125V4.04846Z" fill="#FFECB3"/>
<path d="M8.28125 14.0485H11.7203V15.9516H8.28125V14.0485Z" fill="#FFC06C"/>
</svg>
