<svg width="20" height="20" viewBox="0 0 20 20" fill="none" xmlns="http://www.w3.org/2000/svg">
<g clip-path="url(#clip0_1242_2531)">
<path d="M1.16385 19.2607C1.51854 19.645 2.97948 18.9747 4.1326 18.4372C4.99666 18.0357 8.45448 16.6169 10.1732 15.881C10.6373 15.6825 11.3123 15.4232 11.7982 14.7841C12.2295 14.2154 13.3732 11.7997 11.0701 9.35286C8.7326 6.86849 6.32479 7.55442 5.42479 8.19192C4.8951 8.56692 4.46385 9.41224 4.2701 9.84192C3.45135 11.6575 2.28416 14.9841 1.80916 16.2919C1.46073 17.256 0.812288 18.8794 1.16385 19.2607Z" fill="#FFC107"/>
<path d="M4.03887 10.3887C4.06074 10.6605 4.11543 11.1027 4.30293 11.9543C4.43105 12.5387 4.64043 13.1512 4.81074 13.5559C5.32168 14.773 6.03887 15.2637 6.76543 15.6574C7.9998 16.3262 8.83887 16.4512 8.83887 16.4512L7.83262 16.8621C7.83262 16.8621 7.22324 16.7355 6.39199 16.3262C5.5998 15.9355 4.7748 15.2746 4.17168 13.9809C3.91074 13.4199 3.75918 12.8762 3.67168 12.4449C3.56387 11.9105 3.54668 11.6074 3.54668 11.6074L4.03887 10.3887ZM2.80293 13.5574C2.80293 13.5574 2.92793 14.5715 3.76543 15.8512C4.74668 17.348 6.11699 17.5934 6.11699 17.5934L5.20605 17.9684C5.20605 17.9684 4.18887 17.6574 3.22168 16.3371C2.61855 15.5137 2.4498 14.5293 2.4498 14.5293L2.80293 13.5574ZM1.93574 15.9605C1.93574 15.9605 2.16387 16.8355 2.66387 17.4887C3.25918 18.2684 4.01699 18.4949 4.01699 18.4949L3.31855 18.8043C3.31855 18.8043 2.78887 18.6934 2.20918 17.959C1.76855 17.4012 1.64355 16.7605 1.64355 16.7605L1.93574 15.9605Z" fill="#FF8F00"/>
<path opacity="0.44" d="M1.55645 18.1828C1.5252 18.1125 1.5252 18.0328 1.55801 17.9641L5.5377 9.71094L6.19239 12.1719L2.00489 18.2203C1.89239 18.3891 1.63926 18.3672 1.55645 18.1828Z" fill="#FFFDE7"/>
<path d="M6.5078 12.9982C8.36718 15.1732 10.4844 14.9013 11.1891 14.3513C11.8953 13.7997 12.4531 11.9044 10.6016 9.76537C8.66093 7.52474 6.46405 8.16381 5.95624 8.64818C5.44843 9.13256 4.80155 11.0029 6.5078 12.9982Z" fill="url(#paint0_linear_1242_2531)"/>
<path d="M12.8934 13.8941C12.2152 13.3254 11.8543 13.427 11.3699 13.6285C10.7449 13.8879 9.76211 14.0801 8.42773 13.6285L8.8293 12.6613C9.62148 12.9285 10.1949 12.7988 10.6902 12.5066C11.3277 12.1316 12.1996 11.6176 13.5559 12.7566C14.1215 13.2316 14.7012 13.5473 15.1262 13.4035C15.4355 13.3004 15.5996 12.8395 15.6824 12.4723C15.6902 12.4395 15.7027 12.3457 15.7121 12.2629C15.7871 11.6895 15.9121 10.452 16.834 9.81914C17.8199 9.14258 18.8559 9.14258 18.8559 9.14258L19.0434 11.0051C18.5668 10.9348 18.2355 11.0316 17.9559 11.1863C16.9027 11.7723 17.8199 14.0223 16.1809 14.7785C14.6043 15.5113 13.3152 14.2473 12.8934 13.8941Z" fill="#03A9F4"/>
<path d="M7.09407 11.5188L6.41594 10.9109C7.66125 9.52031 7.33313 8.49844 7.09407 7.75469C7.04563 7.60469 7.00032 7.4625 6.97063 7.32656C6.86438 6.84531 6.8425 6.42656 6.87532 6.06094C6.39719 5.46563 6.18625 4.84219 6.17219 4.8C5.88157 3.92031 6.10032 3.0625 6.60188 2.25781C7.61594 0.625 9.45188 0.625 9.45188 0.625L10.0644 2.26406C9.59875 2.24531 8.07219 2.26875 7.60344 3.00781C7.01125 3.93906 7.40032 4.51406 7.42844 4.57969C7.5425 4.43125 7.65813 4.3125 7.76125 4.22031C8.50969 3.55625 9.15969 3.46094 9.57375 3.49844C10.0394 3.54062 10.4613 3.775 10.7628 4.15938C11.0925 4.58125 11.2284 5.12969 11.1238 5.62813C11.0222 6.11406 10.6988 6.525 10.2128 6.78594C9.36438 7.24219 8.65813 7.17969 8.18469 7.02187C8.18782 7.03281 8.18938 7.04531 8.1925 7.05625C8.20969 7.13438 8.24407 7.24375 8.28469 7.37031C8.56125 8.22656 9.07532 9.58594 7.09407 11.5188ZM8.2425 5.65469C8.33313 5.72031 8.42844 5.775 8.52688 5.81406C8.855 5.94531 9.21282 5.90156 9.61907 5.68281C9.85813 5.55469 9.88625 5.41719 9.89563 5.37188C9.92375 5.23594 9.87688 5.0625 9.77532 4.93281C9.68625 4.81875 9.58313 4.75938 9.45969 4.74687C9.22532 4.72656 8.90813 4.875 8.59094 5.15781C8.43938 5.29375 8.32375 5.46094 8.2425 5.65469Z" fill="#F44336"/>
<path d="M9.8082 11.7738L8.83789 11.7473C8.83789 11.7473 9.29883 9.14414 10.791 8.70664C11.0707 8.62539 11.377 8.54258 11.6848 8.49727C11.8676 8.46914 12.1566 8.42695 12.2988 8.37383C12.3316 8.12852 12.2285 7.81602 12.1129 7.46133C12.0223 7.18633 11.9285 6.90352 11.8785 6.59414C11.7816 5.99102 11.9426 5.4582 12.3316 5.09102C12.8066 4.6457 13.5738 4.50352 14.4395 4.70039C14.9332 4.81289 15.2973 5.05508 15.6176 5.26758C16.0754 5.57227 16.3426 5.72695 16.902 5.35039C17.5785 4.89414 16.6941 3.1082 16.2238 2.07695L17.9785 1.3457C18.2145 1.86133 19.3535 4.51445 18.602 6.02852C18.3488 6.53789 17.9129 6.87539 17.341 7.00195C16.0973 7.28008 15.3691 6.7957 14.8379 6.44258C14.5863 6.27539 14.366 6.14414 14.127 6.07539C12.466 5.60195 14.7848 8.0457 13.6988 9.14414C13.0473 9.80195 11.4551 9.97539 11.352 10.0004C10.327 10.2473 9.8082 11.7738 9.8082 11.7738Z" fill="#F48FB1"/>
<path d="M6.87326 6.06055C6.84357 6.4043 6.82951 6.60898 6.91857 7.05586C7.34826 7.37148 8.2842 7.37148 8.2842 7.37148C8.24357 7.24492 8.20763 7.13555 8.19201 7.05742C8.18888 7.04648 8.18732 7.03398 8.1842 7.02305C7.23263 6.54805 6.87326 6.06055 6.87326 6.06055Z" fill="#C92B27"/>
<path d="M4.92617 7.6002L3.31055 6.80801L4.11523 5.64551L5.38242 6.48457L4.92617 7.6002Z" fill="#FFC107"/>
<path d="M2.54492 5.40664C1.71992 5.2957 0.879297 4.5957 0.787109 4.51602L1.59805 3.56445C1.84336 3.77227 2.36367 4.1207 2.71211 4.16758L2.54492 5.40664Z" fill="#FB8C00"/>
<path d="M4.00195 3.32383L2.81445 2.93477C2.95039 2.51914 2.98633 2.0707 2.91602 1.63789L4.15039 1.43945C4.25195 2.06758 4.20039 2.71914 4.00195 3.32383Z" fill="#03A9F4"/>
<path d="M11.418 2.39414L12.6391 2.12695L12.9917 3.73883L11.7706 4.00602L11.418 2.39414Z" fill="#FB8C00"/>
<path d="M14.4473 2.77637L13.5879 1.86855C14.0379 1.44199 14.141 0.88418 14.141 0.87793L15.3754 1.07949C15.3598 1.17793 15.202 2.0623 14.4473 2.77637Z" fill="#FFC107"/>
<path d="M14.9238 7.59027L16.0155 7.24902L16.3884 8.44215L15.2966 8.7834L14.9238 7.59027Z" fill="#FB8C00"/>
<path d="M15.2422 17.6607L14 17.5139C14.0531 17.0717 13.7234 16.5295 13.6328 16.4092L14.6328 15.6592C14.7078 15.7576 15.3594 16.6592 15.2422 17.6607Z" fill="#F44336"/>
<path d="M18.808 16.0767C18.3408 16.0064 17.8627 15.9783 17.3908 15.9955L17.3486 14.7455C17.8971 14.7267 18.4518 14.758 18.9939 14.8408L18.808 16.0767Z" fill="#FB8C00"/>
<path d="M17.127 17.7968L18.0051 16.9072L19.2137 18.1007L18.3355 18.99L17.127 17.7968Z" fill="#F48FB1"/>
<path d="M14.5473 9.89551L15.4504 10.9282L14.4178 11.8313L13.5146 10.7986L14.5473 9.89551Z" fill="#F44336"/>
</g>
<defs>
<linearGradient id="paint0_linear_1242_2531" x1="11.6225" y1="9.66209" x2="6.9714" y2="12.4527" gradientUnits="userSpaceOnUse">
<stop offset="0.024" stop-color="#8F4700"/>
<stop offset="1" stop-color="#703E2D"/>
</linearGradient>
<clipPath id="clip0_1242_2531">
<rect width="20" height="20" fill="white"/>
</clipPath>
</defs>
</svg>
