<svg width="15" height="15" viewBox="0 0 15 15" fill="none" xmlns="http://www.w3.org/2000/svg">
<path d="M1.40625 7.5C1.40625 8.70523 1.76364 9.88339 2.43323 10.8855C3.10282 11.8876 4.05454 12.6687 5.16802 13.1299C6.28151 13.5911 7.50676 13.7118 8.68883 13.4767C9.8709 13.2415 10.9567 12.6612 11.8089 11.8089C12.6612 10.9567 13.2415 9.8709 13.4767 8.68883C13.7118 7.50676 13.5911 6.28151 13.1299 5.16802C12.6687 4.05453 11.8876 3.10282 10.8855 2.43323C9.88339 1.76364 8.70523 1.40625 7.5 1.40625C5.88436 1.40795 4.33538 2.05052 3.19295 3.19295C2.05052 4.33538 1.40796 5.88436 1.40625 7.5ZM12.6562 7.5C12.6562 8.51981 12.3538 9.51672 11.7873 10.3647C11.2207 11.2126 10.4154 11.8735 9.47321 12.2638C8.53103 12.654 7.49428 12.7561 6.49406 12.5572C5.49385 12.3582 4.5751 11.8671 3.85398 11.146C3.13287 10.4249 2.64178 9.50615 2.44283 8.50593C2.24387 7.50572 2.34598 6.46897 2.73625 5.52679C3.12651 4.5846 3.7874 3.77931 4.63534 3.21273C5.48328 2.64616 6.48019 2.34375 7.5 2.34375C8.86705 2.3453 10.1777 2.88904 11.1443 3.85569C12.111 4.82234 12.6547 6.13295 12.6562 7.5ZM7.5 3.75C7.62432 3.75 7.74355 3.79938 7.83146 3.88729C7.91936 3.9752 7.96875 4.09443 7.96875 4.21875L7.96875 7.5C7.96875 7.62432 7.91936 7.74355 7.83146 7.83145C7.74355 7.91936 7.62432 7.96875 7.5 7.96875L4.21875 7.96875C4.09443 7.96875 3.9752 7.91936 3.88729 7.83145C3.79939 7.74355 3.75 7.62432 3.75 7.5C3.75 7.37568 3.79939 7.25645 3.88729 7.16854C3.9752 7.08063 4.09443 7.03125 4.21875 7.03125L7.03125 7.03125L7.03125 4.21875C7.03125 4.09443 7.08064 3.9752 7.16854 3.88729C7.25645 3.79938 7.37568 3.75 7.5 3.75Z" fill="#F3F9D2"/>
</svg>
